<svg width="250" height="241" viewBox="0 0 250 241" fill="none" xmlns="http://www.w3.org/2000/svg">
<path d="M206.875 168.193C229.931 168.193 248.951 149.885 249.624 126.694C250.296 103.138 231.705 83.4254 208.037 82.7541L160.089 81.3505V42.7197C160.089 19.1018 140.947 0 117.279 0C93.611 0 74.4687 19.1018 74.4687 42.7197V69.2059L50.1892 64.9949C26.8882 60.9671 4.74922 76.5293 0.651665 99.781C-3.44589 123.033 12.2104 145.125 35.5114 149.214L48.171 151.411L33.1263 176.188C20.8948 196.388 27.3163 222.631 47.5594 234.836C54.4702 239.047 62.1149 241 69.6984 241C84.1928 241 98.3202 233.677 106.332 220.372L118.93 199.623L129.816 218.114C137.767 231.663 152.078 239.23 166.817 239.23C174.155 239.23 181.617 237.338 188.405 233.371C208.771 221.41 215.62 195.29 203.694 174.907L199.597 167.949L205.529 168.132C205.957 168.132 206.385 168.132 206.814 168.132L206.875 168.193Z" fill="#0098ED"/>
<g clip-path="url(#clip0_360_2505)">
<path d="M169.098 123.537C168.633 121.992 167.024 121.121 165.507 121.601C155.072 124.886 144.648 127.124 134.23 128.272V123.016C134.23 121.719 133.725 120.488 132.824 119.57C131.952 118.683 130.756 118.138 129.442 118.138C128.129 118.138 126.985 118.653 126.067 119.565C125.968 119.665 125.881 119.766 125.788 119.872C125.759 119.843 125.52 119.559 125.509 119.57C124.637 118.683 123.44 118.138 122.127 118.138C120.814 118.138 119.64 118.659 118.74 119.576C117.874 120.464 117.339 121.678 117.339 123.016V126.692C116.503 126.692 115.788 126.68 115.207 126.656V123.637C115.207 122.341 114.696 121.104 113.795 120.186C112.929 119.304 111.732 118.759 110.419 118.759C109.106 118.759 107.932 119.28 107.032 120.198C106.166 121.086 105.631 122.299 105.631 123.637V125.49C105.184 125.401 104.754 125.301 104.33 125.206C104.708 125.295 103.575 125.064 103.197 125.064C101.977 125.064 100.861 125.538 100.007 126.313C99.9373 126.372 99.8734 126.431 99.8095 126.497C99.4144 126.899 99.0948 127.367 98.8566 127.888C95.8119 127.479 92.7673 126.97 89.7227 126.36V123.365C91.5936 122.862 93.2786 121.873 94.6034 120.518C96.5557 118.529 97.7642 115.788 97.7642 112.763C97.7642 109.738 96.5557 106.991 94.6034 105.008C92.6511 103.025 89.9609 101.788 86.9918 101.788C84.0227 101.788 81.3267 103.019 79.3802 105.008C77.4279 106.997 76.2194 109.738 76.2194 112.763C76.2194 115.788 77.4279 118.535 79.3802 120.518C80.7108 121.873 82.39 122.862 84.2609 123.365V125.159C80.1065 124.164 75.9521 122.986 71.7977 121.613C70.287 121.11 68.6659 121.956 68.172 123.495C67.6781 125.034 68.509 126.686 70.0197 127.189C80.1879 130.552 90.3618 132.807 100.542 134.003C101.012 134.322 101.535 134.559 102.105 134.695C102.198 134.719 102.517 134.784 102.517 134.784L102.552 134.796L101.808 136.116L101.768 136.181C101.553 136.542 101.378 136.951 101.256 137.395C101.14 137.827 101.076 138.265 101.076 138.697C101.076 139.946 101.541 141.089 102.308 141.953C102.36 142.018 102.418 142.083 102.482 142.148C103.348 143.03 104.545 143.575 105.87 143.575C106.672 143.575 107.433 143.368 108.113 143.001C108.176 142.971 108.24 142.936 108.304 142.9C109.031 142.462 109.641 141.829 110.053 141.065L110.425 140.408L110.814 141.095C111.018 141.462 111.268 141.805 111.558 142.101C111.86 142.415 112.203 142.693 112.586 142.918C113.737 143.593 115.038 143.729 116.218 143.409C116.985 143.202 117.7 142.8 118.292 142.219C118.385 142.344 118.478 142.462 118.583 142.58C118.635 142.646 118.693 142.711 118.757 142.776C119.623 143.658 120.82 144.202 122.145 144.202C123.469 144.202 124.666 143.658 125.532 142.776C125.631 142.675 125.718 142.575 125.805 142.468C125.84 142.509 125.869 142.545 125.904 142.58C125.956 142.646 126.014 142.711 126.078 142.776C126.944 143.658 128.141 144.202 129.466 144.202C130.79 144.202 131.987 143.658 132.853 142.776C133.719 141.894 134.253 140.668 134.253 139.325V134.169C138.704 133.695 143.149 133.026 147.594 132.174V133.932H142.806C142.057 133.932 141.371 134.246 140.877 134.749C140.383 135.252 140.075 135.95 140.075 136.714V151.614C140.075 152.378 140.383 153.07 140.877 153.579C141.371 154.083 142.057 154.396 142.806 154.396H157.431C158.18 154.396 158.866 154.083 159.36 153.579C159.854 153.076 160.162 152.378 160.162 151.614V136.714C160.162 135.95 159.854 135.258 159.36 134.749C158.866 134.246 158.18 133.932 157.431 133.932H153.056V131.286V131.262V131.238V131.031C157.78 129.96 162.498 128.687 167.216 127.201C168.732 126.727 169.586 125.088 169.116 123.543L169.098 123.537ZM81.2744 112.763C81.2744 109.548 83.8426 106.932 86.9976 106.932C90.1526 106.932 92.7208 109.548 92.7208 112.763C92.7208 115.977 90.1526 118.594 86.9976 118.594C83.8426 118.594 81.2744 115.977 81.2744 112.763ZM131.761 127.521V139.319C131.761 140.621 130.721 141.681 129.442 141.681C128.164 141.681 127.124 140.621 127.124 139.319V133.227C126.235 133.358 125.346 133.476 124.445 133.571V139.319C124.445 140.621 123.405 141.681 122.127 141.681C120.849 141.681 119.809 140.621 119.809 139.319V133.896C119.036 133.926 118.257 133.938 117.479 133.938C116.625 133.938 115.771 133.92 114.928 133.89L116.956 137.472C117.38 138.182 117.421 139.106 116.979 139.875C116.34 141.006 114.922 141.391 113.812 140.739C113.429 140.515 113.133 140.195 112.935 139.828L110.419 135.382L107.898 139.834C107.502 140.562 106.741 141.053 105.87 141.053C104.591 141.053 103.551 139.994 103.551 138.691C103.551 138.241 103.673 137.827 103.883 137.472L106.416 133.002C105.335 132.819 104.26 132.606 103.197 132.369C103.197 132.369 102.779 132.274 102.668 132.251C101.64 132.008 100.879 131.067 100.879 129.948C100.879 128.645 101.919 127.586 103.197 127.586C103.197 127.586 103.656 127.633 103.79 127.663C105.207 127.988 106.648 128.267 108.101 128.497V123.649C108.101 122.347 109.141 121.287 110.419 121.287C111.698 121.287 112.738 122.347 112.738 123.649V129.036C114.301 129.155 115.881 129.22 117.479 129.22C118.257 129.22 119.036 129.202 119.809 129.178V123.028C119.809 121.725 120.849 120.666 122.127 120.666C123.405 120.666 124.445 121.725 124.445 123.028V128.823C125.346 128.722 126.235 128.598 127.124 128.456V123.028C127.124 121.725 128.164 120.666 129.442 120.666C130.721 120.666 131.761 121.725 131.761 123.028V127.527V127.521ZM155.089 139.07V149.246H145.101V139.07H155.089Z" fill="white"/>
<path d="M157.734 104.079C155.778 102.096 153.083 100.868 150.108 100.868C147.134 100.868 144.433 102.096 142.482 104.079C140.526 106.063 139.316 108.796 139.316 111.812C139.316 114.829 140.526 117.568 142.482 119.546C144.438 121.529 147.134 122.757 150.108 122.757C153.083 122.757 155.784 121.529 157.734 119.546C159.684 117.562 160.901 114.829 160.901 111.812C160.901 108.796 159.69 106.057 157.734 104.079ZM150.108 117.627C146.947 117.627 144.374 115.018 144.374 111.812C144.374 108.607 146.947 105.998 150.108 105.998C153.269 105.998 155.842 108.607 155.842 111.812C155.842 115.018 153.269 117.627 150.108 117.627Z" fill="white"/>
<path d="M96.248 149.659C95.753 149.157 95.0715 148.844 94.3144 148.844H82.3922V136.778V136.754V136.73V136.299H82.3515C82.2525 135.709 81.9729 135.177 81.571 134.775C81.076 134.279 80.4004 133.978 79.6549 133.978C78.9094 133.978 78.2279 134.285 77.7387 134.775C77.3368 135.177 77.0573 135.703 76.9582 136.299H76.9175V151.62C76.9175 152.382 77.2262 153.079 77.7212 153.581C78.2163 154.083 78.9035 154.396 79.6549 154.396H94.3144C95.0715 154.396 95.753 154.083 96.248 153.581C96.7431 153.079 97.0518 152.382 97.0518 151.62C97.0518 150.858 96.7431 150.161 96.248 149.659Z" fill="white"/>
</g>
<defs>
<clipPath id="clip0_360_2505">
<rect width="102.667" height="55" fill="white" transform="translate(67.6666 100.5)"/>
</clipPath>
</defs>
</svg>
