<svg width="201" height="200" viewBox="0 0 201 200" fill="none" xmlns="http://www.w3.org/2000/svg">
<rect x="0.5" width="200" height="200" rx="70" fill="#2179CA"/>
<path d="M140.131 114.45C140.125 114.326 140.114 114.07 140.098 113.89C140.06 113.462 140.066 113.038 140.06 112.612C140.055 112.574 140.049 112.535 140.044 112.497C139.997 112.126 139.986 111.748 139.951 111.374C139.888 111.028 139.594 110.072 139.594 110.072C139.564 109.853 139.436 109.651 139.232 109.5C139.156 109.445 139.077 109.394 138.996 109.345C138.181 108.927 137.37 108.505 136.534 108.131C135.907 107.851 135.292 107.601 134.629 107.413C134.426 107.356 134.224 107.307 134.023 107.257C133.532 107.226 133.045 107.148 132.558 107.063C131.809 107.022 131.06 106.988 130.311 106.974C129.531 106.958 128.748 106.957 127.968 106.965C126.939 107.025 125.909 107.074 124.878 107.109C124.17 107.181 123.466 107.264 122.753 107.281C122.736 107.281 122.721 107.278 122.704 107.278C122.69 107.278 122.674 107.281 122.66 107.283C122.347 107.311 122.026 107.332 121.716 107.351C121.452 107.367 121.19 107.384 120.928 107.406C120.684 107.427 120.436 107.465 120.196 107.501C119.706 107.576 119.201 107.655 118.734 107.577C117.818 107.427 116.911 107.508 116.034 107.585C115.659 107.618 115.27 107.653 114.89 107.669C114.499 107.685 114.103 107.718 113.72 107.751C113.341 107.783 112.948 107.816 112.562 107.832C111.961 107.857 111.35 107.872 110.76 107.886C110.064 107.903 109.343 107.921 108.635 107.954C108.189 107.974 107.739 108.025 107.304 108.074C107.003 108.107 106.69 108.144 106.383 108.168C106.145 108.187 105.901 108.194 105.664 108.202C105.351 108.212 105.027 108.223 104.711 108.259C104.436 108.291 104.16 108.346 103.893 108.399C103.572 108.462 103.24 108.528 102.913 108.552C102.227 108.604 101.747 108.851 101.401 109.329C101.159 109.665 101.124 110.301 101.233 110.7C101.298 110.942 101.41 111.104 101.557 111.169L101.665 111.215C102.039 111.374 102.268 111.49 102.241 111.846C102.221 112.123 102.135 112.403 102.052 112.674C102.023 112.769 101.993 112.864 101.968 112.957C101.932 113.086 101.889 113.214 101.845 113.34C101.769 113.565 101.69 113.796 101.652 114.034C101.611 114.3 101.598 114.57 101.586 114.835C101.576 115.047 101.565 115.265 101.541 115.476L101.524 115.618C101.448 116.256 101.371 116.916 101.233 117.549C101.072 118.29 100.848 119.031 100.628 119.721C100.454 120.27 100.257 120.823 100.065 121.358C99.9769 121.604 99.89 121.85 99.803 122.097C99.7967 122.116 99.7888 122.135 99.7809 122.154C99.7556 122.217 99.7304 122.282 99.7256 122.355C99.7003 122.76 99.9721 123.964 100.574 124.287C101.176 124.61 102.676 125.114 103.036 125.174C103.397 125.234 104.512 125.27 105.046 125.267C105.427 125.267 105.808 125.28 106.187 125.302C106.815 125.275 107.442 125.259 108.061 125.311C108.246 125.311 108.431 125.319 108.616 125.335C109.55 125.414 110.46 125.63 111.383 125.774C111.558 125.786 111.735 125.799 111.911 125.809C113.625 125.911 115.342 125.967 117.056 126C117.075 125.998 117.091 125.994 117.111 125.994C118.275 125.986 119.442 125.962 120.604 125.908C121.173 125.881 121.738 125.859 122.303 125.881C123.366 125.758 124.43 125.807 125.493 125.712C126.386 125.633 127.258 125.47 128.148 125.387C128.211 125.356 128.287 125.337 128.372 125.337C130.423 125.321 132.457 125.011 134.505 124.962C134.856 124.916 135.208 124.871 135.559 124.833C136.253 124.756 137.046 124.789 137.718 124.612C138.206 124.482 138.691 124.064 139.018 123.624L139.009 123.57C139.03 123.561 139.053 123.553 139.075 123.545C139.131 123.466 139.181 123.387 139.224 123.309C139.376 123.039 139.535 122.754 139.687 122.462C139.728 122.258 139.771 122.056 139.818 121.853C140.115 120.588 140.163 119.352 140.145 118.056C140.129 116.842 140.133 114.569 140.128 114.447L140.131 114.45ZM133.311 119.262C133.323 119.479 133.337 119.694 133.35 119.911C133.356 120.025 133.412 120.449 133.353 120.484C133.295 120.519 131.544 120.447 131.544 120.447C131.264 120.447 130.978 120.439 130.702 120.432C130.063 120.414 129.404 120.395 128.764 120.473C127.753 120.595 126.745 120.509 125.594 120.202C125.485 120.174 125.371 120.167 125.262 120.162C125.218 120.161 125.175 120.158 125.133 120.155C124.834 120.129 124.537 120.105 124.238 120.082C123.594 120.031 122.927 119.979 122.273 119.911C121.67 119.849 121.061 119.778 120.47 119.708C120.447 119.705 120.427 119.703 120.405 119.7C119.694 119.678 118.982 119.662 118.271 119.64C118.169 119.653 116.437 119.57 115.678 119.513C113.222 119.328 110.776 119.02 108.31 119.005C108.264 119.005 106.53 118.961 106.337 118.811C106.145 118.66 105.893 118.089 105.762 117.593C105.615 117.041 105.55 116.454 105.487 115.886L105.482 115.84C105.448 115.529 105.435 115.211 105.422 114.903C105.414 114.713 105.407 114.523 105.396 114.333C105.361 113.81 105.323 113.287 105.283 112.739L105.238 112.103C105.419 112.148 108.867 111.826 109.959 111.862C110.278 111.871 110.595 111.897 110.911 111.928C111.467 111.928 112.025 111.94 112.581 111.96L112.595 111.955C112.595 111.955 112.609 111.951 112.616 111.946C112.622 111.952 112.628 111.955 112.635 111.96C114.871 112.046 117.105 112.262 119.338 112.467C121.606 112.674 123.865 112.702 126.138 112.805C127.17 112.851 128.301 112.763 129.365 112.916C129.475 112.916 129.588 112.916 129.698 112.921C129.902 112.93 130.1 112.964 130.294 113.006C131.555 112.935 133.216 112.91 133.601 114.078C133.813 114.719 133.483 115.411 133.355 116.03C133.284 116.378 133.238 116.729 133.203 117.084C133.225 117.812 133.268 118.546 133.312 119.259L133.311 119.262Z" fill="white"/>
<path d="M89.2014 88.3032C89.1967 88.2003 89.1935 88.099 89.1888 87.9961C89.1872 87.9502 89.184 87.9028 89.1824 87.8568C89.1809 87.8141 89.1777 87.773 89.1761 87.7302C89.173 87.6812 89.1714 87.6321 89.1682 87.5814C89.1666 87.5419 89.1635 87.5039 89.1619 87.4643C89.1587 87.4137 89.1556 87.363 89.1508 87.3123C89.1477 87.2744 89.1445 87.2364 89.1414 87.2C89.1366 87.1477 89.1319 87.0939 89.1256 87.0417C89.1224 87.0069 89.1192 86.972 89.1145 86.9372C89.1082 86.8786 89.1003 86.8217 89.0924 86.7631C89.0892 86.7346 89.0845 86.7045 89.0813 86.676C89.0687 86.589 89.0544 86.5035 89.0386 86.4165C89.0292 86.3674 89.0181 86.3199 89.0086 86.2708C88.8917 85.6788 88.7416 85.0948 88.6057 84.5075C88.5551 84.2907 88.5061 84.0738 88.4634 83.857C88.4318 83.7019 88.405 83.5436 88.3797 83.3869C88.3307 83.2571 88.288 83.1241 88.2454 82.9912C88.0937 82.5068 87.9799 82.0034 87.8693 81.5033C87.8329 81.3798 87.7871 81.2579 87.7255 81.1471C87.6212 80.9603 87.4884 80.7862 87.3588 80.6184C87.1787 80.3826 87.0064 80.1594 86.9085 79.9046C86.722 79.4234 86.4044 79.0514 86.0962 78.6905C85.9635 78.5354 85.8276 78.3755 85.7043 78.2109C85.6316 78.1144 85.5621 78.0637 85.4515 77.9893C85.3409 77.9149 85.2666 77.801 85.1734 77.7107C85.0801 77.6205 84.6266 77.1631 84.1525 76.8481C83.8286 76.6312 83.4288 76.2149 83.2992 76.1358C83.1696 76.0567 82.9199 75.9047 82.8883 75.8715C82.8567 75.8382 82.8472 75.8129 82.5897 75.6071C82.3321 75.4014 81.6937 75.1845 81.1422 74.9835C80.6017 74.7872 79.9996 74.602 79.3043 74.4168C79.1984 74.3883 79.0926 74.3598 78.9851 74.3313C78.4668 74.1889 77.9295 74.0433 77.3906 74.0053C77.043 73.9815 76.6464 74.0449 76.4457 74.0575C76.245 74.0702 75.9747 74.0844 75.5339 74.1382C75.093 74.1921 74.0658 74.4073 73.8193 74.507C73.5728 74.6068 73.3089 74.7065 73.0213 74.8537C72.7337 75.0009 71.9467 75.3982 71.6354 75.5786C71.2704 75.7892 70.9069 76.0044 70.545 76.2197C70.3427 76.3653 69.8592 76.6977 69.6095 76.9541C69.3598 77.2106 68.9395 77.5873 68.6803 77.9086C68.486 78.184 68.0862 78.7032 67.9345 78.9232C67.7827 79.1432 67.2692 79.9537 67.029 80.2781C66.6386 80.8036 66.2357 81.3481 65.858 81.8974C65.6305 82.2282 65.5119 82.6477 65.4345 82.9769C65.3128 83.4866 65.2148 84.0121 65.12 84.5186C65.0789 84.7402 65.011 85.0299 64.9936 85.1818C64.9762 85.3338 64.9415 85.6393 64.943 85.7422C64.9588 86.3658 64.9494 86.8818 64.9873 87.5783C64.9968 87.7682 65.0047 87.9582 65.011 88.1481C65.0315 88.6894 65.0521 89.2482 65.1437 89.7895C65.2085 90.1678 65.3792 90.5287 65.5451 90.8785C65.5957 90.9846 65.6447 91.089 65.6921 91.1935C65.7774 91.385 65.8596 91.5766 65.9433 91.7697C66.2041 92.3743 66.4727 92.998 66.8077 93.5757C67.1886 94.2326 67.6342 94.5856 68.0941 95.1079C68.192 95.2187 68.8004 95.9167 68.8968 96.045C69.589 96.9725 70.5197 97.7006 71.8298 98.3369C71.9767 98.4082 72.1458 98.4493 72.2944 98.4841C72.4555 98.5237 72.6088 98.5601 72.6847 98.6234C72.6847 98.6234 72.6878 98.625 72.6894 98.6266C72.9818 98.7168 73.2709 98.8403 73.5585 98.9701C73.5633 98.9701 73.5665 98.9732 73.5712 98.9748C73.8462 99.0635 74.1274 99.1268 74.4103 99.1822C74.7643 99.2202 75.0993 99.2629 75.4153 99.3927C75.733 99.5241 76.0917 99.5526 76.4393 99.5795L76.5231 99.5858C76.8455 99.6127 77.1457 99.6333 77.4381 99.6333C77.5977 99.6333 77.7557 99.6238 77.9137 99.6096C78.3704 99.4798 78.854 99.331 79.3359 99.2376C79.4039 99.2138 79.4718 99.1933 79.5429 99.1743C79.5714 99.1664 79.6014 99.16 79.6299 99.1537C79.6757 99.1268 79.7215 99.1015 79.7705 99.0777C79.8211 99.054 79.8732 99.0318 79.9269 99.0128C80.4421 98.8324 80.9636 98.7137 81.4787 98.5665C81.4898 98.5633 81.5009 98.5601 81.5119 98.557C81.5293 98.5522 81.5467 98.5475 81.5641 98.5427C81.8801 98.4493 82.193 98.3449 82.4996 98.204C83.1427 97.9096 83.7764 97.5661 84.3248 97.1166C84.339 97.1055 84.3532 97.0928 84.3674 97.0802C84.388 97.0627 84.4101 97.0469 84.4306 97.0295C84.4306 97.0295 84.4306 97.0279 84.4306 97.0263C84.5018 96.9662 84.5713 96.9045 84.6377 96.8396C84.7341 96.7462 84.8336 96.6512 84.9332 96.5578C85.107 96.3932 85.2808 96.227 85.4546 96.0576C85.4531 96.0608 85.4515 96.0624 85.4483 96.0655C85.4957 96.0196 85.5416 95.9737 85.5874 95.9278C85.6285 95.8867 85.6711 95.8471 85.7122 95.8075C85.7122 95.8075 85.7122 95.8044 85.7138 95.8028C85.8307 95.6857 85.9461 95.5669 86.0567 95.4466C86.0583 95.4466 86.0599 95.4466 86.0615 95.4466C86.0946 95.4118 86.1247 95.377 86.1563 95.3422C86.161 95.3374 86.1658 95.3327 86.1705 95.3279C86.2859 95.1981 86.5434 94.9623 86.6224 94.8657C86.8816 94.5492 87.1297 94.2674 87.1724 94.2152C87.215 94.1614 87.5911 93.8084 87.7539 93.5773C87.9167 93.3462 88.5741 92.0023 88.5851 91.4784C88.593 91.1159 88.7226 90.7693 88.849 90.4337C89.0371 89.9351 89.1666 89.0519 89.1682 88.9031C89.1714 88.7543 89.2046 88.4235 89.2014 88.3333C89.2014 88.3238 89.2014 88.3127 89.2014 88.3032ZM83.6753 87.4437C83.6295 87.8268 83.4525 88.2098 83.2818 88.5786C83.2344 88.6815 83.187 88.7844 83.1427 88.8857C82.9452 89.3384 82.7477 89.7769 82.4885 90.171C82.1804 90.6427 81.8438 90.8975 81.3239 91.0511C81.1074 91.1144 80.8909 91.2141 80.6807 91.3091C80.3868 91.442 80.0834 91.5797 79.7642 91.6351C79.573 91.6684 79.366 91.6984 79.1321 91.7269C79.0009 91.7428 78.8698 91.7538 78.7386 91.7649L78.5743 91.7792L78.4779 91.7713H78.4731C78.4115 91.7744 78.3514 91.7792 78.2898 91.7839C78.1539 91.7934 78.0133 91.8013 77.8774 91.8029C77.7241 91.8029 77.5645 91.7792 77.4001 91.757C76.9924 91.7 76.5831 91.6415 76.1423 91.5781C76.1423 91.5781 75.8736 91.5813 75.7029 91.5338C75.5323 91.4863 75.0187 91.2822 74.8686 91.1998C74.7184 91.1175 74.2017 90.6221 73.9694 90.3324C73.8762 90.2153 73.2251 89.2878 73.1177 89.0709C73.0102 88.854 72.6167 88.0911 72.5377 87.5862C72.5251 87.5055 72.5156 87.4247 72.5093 87.344C72.4476 87.067 72.4097 86.7853 72.3907 86.5035C72.3797 86.3151 72.3765 86.1284 72.3844 85.94C72.386 85.902 72.3876 85.864 72.3892 85.8245C72.386 85.6013 72.3892 85.3733 72.4002 85.1423C72.4065 85.0172 72.4145 84.8906 72.4239 84.7655C72.5061 83.7398 72.7368 82.6841 73.2077 81.8198C73.2615 81.7201 73.3199 81.6283 73.38 81.5397C73.4084 81.4969 73.4384 81.4542 73.4701 81.4146C73.4827 81.3972 73.4969 81.3798 73.5096 81.3624C73.5364 81.3276 73.5649 81.2943 73.5933 81.2611C73.6075 81.2437 73.6233 81.2263 73.6376 81.2104C73.7197 81.1202 73.8051 81.0363 73.8951 80.9603C74.0705 80.6849 74.2618 80.4095 74.4593 80.1341C74.5905 79.9505 74.9602 79.8903 75.2873 79.8365C75.379 79.8223 75.4691 79.8064 75.5512 79.7906C75.9811 79.7036 76.4267 79.6434 76.8565 79.5864C76.994 79.5674 77.1299 79.55 77.2674 79.531C77.3085 79.5247 77.4191 79.5358 77.4633 79.5294C77.5787 79.512 77.6846 79.5484 77.8458 79.5389C78.2282 79.5152 78.4557 79.7875 78.805 79.9362C79.4323 80.2037 80.0802 80.4807 80.7455 80.6691C81.9038 80.9983 82.7556 81.7708 83.4272 83.0956C83.6405 83.5167 83.7685 84.0596 83.7875 84.6262C83.8207 85.6187 83.7843 86.5668 83.6784 87.4437H83.6753Z" fill="white"/>
<path d="M122.7 98.8333C122.617 98.4487 122.522 98.0656 122.419 97.6842C122.416 97.6842 122.411 97.6842 122.408 97.6842C122.116 97.2188 121.858 96.7392 121.623 96.2881C121.529 96.1092 121.444 95.9209 121.36 95.7372C121.253 95.5014 120.744 95.055 120.436 94.5169C120.129 93.9787 118.492 91.6646 117.931 90.9649C117.37 90.2653 115.817 88.024 115.502 87.6314C115.188 87.2389 114.687 86.6089 114.384 86.2607C113.838 85.637 113.371 84.9295 113.16 84.1191C112.998 83.4923 112.961 82.8417 112.848 82.2086C112.716 82.025 112.576 81.8493 112.435 81.6799C112.331 81.5549 112.154 81.5058 111.983 81.4583C111.909 81.4377 111.838 81.4187 111.775 81.3934C111.692 81.3602 111.61 81.3253 111.528 81.2905C111.335 81.2098 111.138 81.1243 110.932 81.0689C110.839 81.0436 110.743 81.0578 110.649 81.0721C110.561 81.0848 110.479 81.0974 110.423 81.0721C109.817 80.7919 109.327 80.9787 108.808 81.175C108.674 81.2256 108.537 81.2779 108.394 81.3238C107.729 81.5343 107.423 82.0408 107.125 82.5315C106.99 82.7578 106.855 82.9763 106.691 83.1599C106.653 83.2659 106.613 83.3704 106.564 83.4717C106.331 83.9592 106.01 84.4246 105.713 84.882C105.563 85.2999 105.405 85.7209 105.217 86.1214C105.054 86.4696 104.845 86.8068 104.643 87.1313C104.442 87.4557 104.234 87.7913 104.068 88.1427C103.756 88.8012 103.478 89.4865 103.208 90.1498C103.056 90.5217 102.905 90.8953 102.747 91.2641C102.631 91.5332 102.508 91.8038 102.386 92.065C102.23 92.4053 102.067 92.7583 101.923 93.1129C101.798 93.4215 101.685 93.7349 101.576 94.0483C101.576 94.1164 101.563 94.186 101.533 94.2573C101.233 94.9711 101.005 95.7056 100.782 96.4432C100.77 96.5461 100.748 96.6347 100.705 96.6965C100.534 97.26 100.36 97.8234 100.155 98.3759C99.9243 98.9948 99.4961 99.7213 99.2464 100.448C99.2385 100.578 99.2495 100.714 99.2938 100.858C99.3554 101.06 99.4313 101.293 99.5324 101.515C99.7995 101.814 100.068 102.113 100.365 102.382C100.697 102.612 101.043 102.822 101.403 103.003C101.775 103.189 102.159 103.346 102.551 103.485C102.645 103.479 102.742 103.473 102.837 103.473C103.361 103.471 103.832 103.713 104.363 103.644C105.104 103.547 105.68 103.034 106.092 102.434C106.348 101.857 106.688 101.32 106.912 100.728C107.028 100.422 107.132 100.114 107.268 99.8163C107.391 99.544 107.536 99.2876 107.611 98.9948C107.715 98.5816 107.835 98.1796 108.025 97.8076C108.044 97.7475 108.063 97.6889 108.083 97.6288C108.113 97.5449 108.146 97.4641 108.18 97.3818C108.181 97.3708 108.183 97.3597 108.184 97.3486C108.187 97.3438 108.192 97.3391 108.2 97.3343C108.292 97.1191 108.393 96.9086 108.488 96.6949C108.616 96.4084 108.725 96.1203 108.818 95.8227C108.87 95.6565 108.93 95.4919 109.006 95.3368C109.006 95.3368 109.004 95.3336 109.003 95.332C109.006 95.3305 109.009 95.3289 109.011 95.3257C109.057 95.2323 109.107 95.1421 109.17 95.0582C109.346 94.8255 109.531 94.6387 109.665 94.376C109.75 94.2114 109.826 94.042 109.908 93.8758C109.964 93.6969 110.027 93.5086 110.106 93.3044C110.15 93.1888 110.329 93.0765 110.474 93.0353C110.514 93.029 110.667 93.1319 110.714 93.2205C110.804 93.3946 110.883 93.5782 110.959 93.7571C111.056 93.9834 111.757 94.949 111.947 95.1975C112.091 95.3843 112.233 95.5758 112.337 95.7879C112.359 95.8306 112.378 95.875 112.397 95.9193H112.4C112.4 95.9193 112.402 95.9288 112.404 95.9335C112.503 96.1567 112.588 96.3878 112.677 96.6141C112.78 96.8769 112.876 97.1412 112.969 97.4056C113.532 98.4946 114.741 100.032 114.824 100.16C114.908 100.288 115.158 100.475 115.31 100.693C115.463 100.912 115.777 101.235 116.057 101.583C116.251 101.823 116.449 102.064 116.658 102.293C116.839 102.493 117.024 102.708 117.253 102.854C117.56 103.048 117.917 103.153 118.277 103.211C118.429 103.211 118.576 103.23 118.715 103.264C118.748 103.267 118.783 103.27 118.816 103.273C118.947 103.235 119.077 103.196 119.208 103.156C119.285 103.115 119.363 103.075 119.445 103.039C119.515 103.009 119.583 102.974 119.652 102.942C119.777 102.859 119.897 102.762 120.019 102.669C120.27 102.477 120.551 102.365 120.829 102.219C121.395 101.925 121.765 101.347 122.149 100.856C122.34 100.612 122.558 100.391 122.749 100.146C122.762 100.13 122.773 100.115 122.784 100.1C122.828 99.677 122.789 99.2512 122.696 98.8301L122.7 98.8333Z" fill="white"/>
<path d="M95.7493 121.669C95.7161 121.068 95.7588 120.449 95.6292 119.863C95.4143 119.724 95.1931 119.61 94.8849 119.51C94.7316 119.461 94.5799 119.414 94.4282 119.368C94.177 119.354 93.9273 119.335 93.676 119.302C93.2177 119.243 92.7816 119.119 92.3439 118.998C91.5822 118.939 90.8174 118.918 90.0573 118.809C88.8689 118.64 87.7912 118.74 86.6044 118.77C86.3611 118.793 86.1177 118.814 85.8743 118.833C85.8696 118.833 85.8649 118.836 85.8601 118.838C85.5046 118.96 85.0526 118.961 84.5817 118.92C83.9054 118.956 83.2274 118.98 82.5495 119.001C81.3738 119.173 80.1949 119.303 79.0018 119.311C77.0281 119.324 75.056 119.248 73.0838 119.181C71.856 119.14 70.154 119.518 69.0653 118.809C69.0352 118.789 68.7682 118.711 68.7492 118.613C68.7302 118.515 68.5722 117.872 68.5027 117.505C68.4426 117.192 68.381 116.867 68.2988 116.552L68.2483 116.354C68.1155 115.833 67.978 115.295 67.6873 114.863C67.6288 114.776 67.5719 114.681 67.515 114.585C67.5008 114.561 67.4866 114.537 67.4724 114.513C67.1927 114.297 66.8924 114.119 66.5479 114.013C65.6598 113.844 64.906 113.899 64.0985 114.105C63.8378 114.327 63.626 114.612 63.5138 115.014C63.329 115.675 63.1251 116.345 62.9276 116.991C62.5689 118.171 62.1991 119.392 61.9194 120.612C61.7693 121.267 62.0016 122.037 62.207 122.714L62.2244 122.771C62.3192 123.085 62.4772 123.377 62.6574 123.661C62.8865 123.895 63.1251 124.121 63.3448 124.376C63.3542 124.387 63.3621 124.4 63.3716 124.411C64.9677 125.058 66.8166 125.074 68.5058 125.247C68.784 125.275 69.0621 125.297 69.3386 125.316C69.7353 125.34 70.1272 125.354 70.5207 125.362C70.6961 125.343 70.8683 125.34 71.0358 125.37C71.3155 125.37 71.7169 125.362 71.8781 125.362C72.0393 125.362 72.4896 125.377 72.7362 125.353C72.9827 125.329 75.2156 125.443 76.4577 125.527H79.4996L79.7209 125.532C80.1349 125.506 80.3293 125.506 80.7417 125.468C80.8255 125.435 80.9914 125.454 81.0751 125.426C81.3153 125.345 81.5729 125.411 81.6962 125.391C81.8194 125.37 82.5037 125.332 82.924 125.324C83.1405 125.321 83.357 125.307 83.5735 125.289C83.8437 125.229 84.1203 125.191 84.4016 125.168C84.4742 125.153 84.5469 125.139 84.618 125.126L84.6117 125.112L84.6386 125.123C85.0131 125.055 85.3908 124.998 85.7716 124.976C85.9455 124.967 86.1177 124.963 86.2915 124.965C86.2947 124.965 86.2963 124.963 86.2994 124.963C86.3137 124.962 86.3295 124.963 86.3468 124.967C86.3832 124.967 86.4195 124.967 86.4559 124.967C86.6139 124.955 86.7719 124.946 86.9315 124.941C88.0946 124.91 89.2403 124.856 90.3812 124.764C90.4365 124.754 90.4934 124.747 90.5487 124.739C91.8176 124.531 93.0771 124.259 94.316 123.919C94.7048 123.813 95.1583 123.715 95.4649 123.438C95.7446 122.876 95.7841 122.306 95.7493 121.666V121.669Z" fill="white"/>
<path d="M133.789 94.2013C133.789 94.2013 133.803 94.1997 133.81 94.1981C133.824 94.2298 133.84 94.2646 133.856 94.2979C133.913 94.4182 133.979 94.5543 133.969 94.673C133.966 94.7284 133.96 94.7854 133.952 94.8424C134.034 95.1194 134.033 95.4296 134.015 95.7098C133.987 96.1561 133.89 96.65 133.849 97.0505C133.788 97.6551 133.808 98.274 133.81 98.8802C133.811 99.3915 133.81 99.9028 133.816 100.414C133.826 101.126 133.848 101.938 134.162 102.575C134.303 102.86 134.497 103.089 134.774 103.168C135.02 103.239 135.289 103.249 135.543 103.269C135.869 103.295 136.196 103.307 136.523 103.304C137.003 103.301 137.481 103.263 137.953 103.194C139.461 102.755 139.769 101.52 139.785 100.173C139.767 100.052 139.75 99.9281 139.729 99.8078C139.712 99.7096 139.729 99.5973 139.745 99.488L139.75 99.4564C139.755 99.4263 139.761 99.3962 139.767 99.3662C139.742 98.8343 139.701 98.3072 139.696 97.8245C139.696 97.7659 139.706 97.7153 139.72 97.6678C139.72 97.6599 139.718 97.6504 139.717 97.6424C139.661 97.2072 139.605 96.7576 139.565 96.3144C139.543 96.058 139.551 95.7905 139.56 95.5325C139.567 95.3378 139.573 95.1368 139.567 94.9389C139.556 94.6334 139.526 94.3232 139.497 94.024C139.486 93.9116 139.475 93.7993 139.466 93.6869L139.461 93.6394C139.453 93.5381 139.443 93.4336 139.417 93.3307C139.379 93.1899 139.334 93.0474 139.29 92.9097C139.208 92.6517 139.123 92.3842 139.093 92.1199C139.036 91.6228 139.001 91.1116 138.968 90.6177C138.903 89.6712 138.837 88.693 138.614 87.7654C138.506 87.3175 138.429 86.8569 138.355 86.4121C138.258 85.8375 138.16 85.2439 137.994 84.6757C137.923 84.4319 137.865 84.1771 137.809 83.9302C137.625 83.1182 137.432 82.2792 136.754 81.6303C136.54 81.5258 136.318 81.4292 136.089 81.3818C135.788 81.32 135.467 81.3707 135.164 81.3754C135.126 81.3754 135.087 81.3754 135.046 81.3723C134.984 81.3976 134.922 81.4213 134.862 81.4482C134.786 81.4815 134.711 81.5163 134.636 81.5527C134.421 81.7411 134.263 81.9975 134.251 82.3885C134.24 82.7525 134.2 83.1229 134.164 83.4806C134.123 83.8779 134.08 84.2879 134.074 84.6931C134.058 85.6412 134.069 86.6052 134.08 87.5375C134.085 87.9728 134.091 88.4065 134.093 88.8418C134.096 89.2976 133.977 89.6379 133.758 89.801C133.72 89.8295 133.677 89.8516 133.633 89.869C133.434 90.0131 133.16 90.0827 132.942 90.1666C132.841 90.2046 132.738 90.2521 132.629 90.2837C132.525 90.3138 132.395 90.3423 132.31 90.3771C132.236 90.4072 132.16 90.4515 132.078 90.4468C131.962 90.442 131.896 90.3486 131.898 90.2378C131.898 90.2331 131.899 90.2299 131.901 90.2252C131.88 90.1381 131.885 90.0495 131.906 89.9624C131.902 89.9054 131.901 89.8516 131.901 89.7994C131.906 89.6538 131.92 89.505 131.932 89.3609C131.955 89.1251 131.978 88.8813 131.959 88.6423C131.932 88.2941 131.882 87.9411 131.834 87.6008C131.751 87.0072 131.664 86.3947 131.699 85.8027C131.77 84.6314 131.542 83.5044 131.322 82.4138L131.266 82.1305C131.22 81.8994 130.927 81.7126 130.839 81.6603C130.749 81.6081 130.656 81.5575 130.562 81.5084C130.415 81.4625 130.27 81.4118 130.122 81.3738C130.076 81.3628 130.03 81.3549 129.984 81.3485C129.981 81.3485 129.979 81.3485 129.976 81.3485C129.834 81.3311 129.687 81.3343 129.545 81.3374C129.14 81.3454 128.737 81.3849 128.339 81.4514C128.311 81.4641 128.281 81.4767 128.252 81.4894C128.19 81.5179 128.129 81.5511 128.069 81.5844C128.056 81.6002 128.043 81.6144 128.031 81.6287C127.999 81.6651 127.964 81.7015 127.93 81.7363C127.928 81.7379 127.925 81.7395 127.923 81.7411C127.865 81.855 127.795 81.969 127.727 82.0798C127.601 82.2824 127.468 82.4913 127.41 82.7224C127.336 83.0184 127.328 83.3318 127.321 83.6358C127.318 83.7814 127.315 83.9333 127.304 84.079C127.28 84.4003 127.252 84.7216 127.225 85.0429C127.173 85.6539 127.119 86.2855 127.089 86.9091C127.067 87.3602 127.075 87.8192 127.081 88.2624C127.086 88.5125 127.089 88.761 127.087 89.0095V89.3245C127.087 89.7693 127.087 90.2299 127.059 90.6795C127.038 91.0024 127.004 91.3316 126.972 91.6513C126.929 92.0629 126.885 92.4871 126.869 92.9081C126.85 93.4289 126.909 93.9576 126.967 94.4831C127.042 95.1415 127.136 95.8411 127.268 96.6864C127.291 96.8431 127.332 96.9966 127.373 97.1454C127.419 97.3164 127.467 97.4921 127.486 97.6662C127.522 97.997 127.547 98.3341 127.571 98.6618C127.599 99.0623 127.629 99.4754 127.682 99.8806C127.721 100.178 127.789 100.479 127.855 100.77C127.897 100.947 127.936 101.128 127.971 101.307C128.164 101.894 128.307 102.491 128.797 102.937C128.87 103.004 128.946 103.065 129.025 103.124C129.646 103.227 130.414 103.326 130.954 103.23C131.112 103.17 131.27 103.106 131.428 103.04C131.544 102.947 131.613 102.818 131.62 102.647C131.623 102.568 131.64 102.499 131.669 102.438C131.675 102.359 131.683 102.282 131.688 102.203L131.683 102.199C131.683 102.199 131.688 102.193 131.689 102.19C131.73 101.593 131.743 100.993 131.779 100.398C131.816 99.7682 131.898 99.1477 131.985 98.5225C132.072 97.8989 132.026 97.3148 131.994 96.7149C131.989 96.6991 131.985 96.6832 131.98 96.6658C131.944 96.5329 131.929 96.3746 131.939 96.183C131.944 96.0976 131.95 96.0121 131.956 95.9266C131.95 95.8586 131.944 95.7905 131.939 95.7224C131.902 95.2555 131.861 94.7886 131.827 94.3216C131.819 94.2076 131.819 94.0826 131.861 93.975C131.855 93.9496 131.85 93.9259 131.844 93.899C131.906 93.8562 131.974 93.8103 132.016 93.7803C132.019 93.7819 132.023 93.785 132.027 93.7866C132.146 93.7233 132.285 93.736 132.421 93.7597C132.813 93.8293 133.516 93.8357 133.792 94.2013H133.789Z" fill="white"/>
<path d="M94.2723 106.813L94.2644 106.806C93.8488 106.521 93.3763 106.199 92.8975 105.906C92.7284 105.803 92.5103 105.746 92.229 105.732C91.7012 105.705 91.1734 105.683 90.644 105.662C90.2916 105.648 89.9392 105.634 89.5884 105.618C89.4352 105.611 89.2819 105.597 89.1223 105.583C88.822 105.556 88.5123 105.529 88.1947 105.548C87.6669 105.577 87.1343 105.622 86.6144 105.667C86.085 105.713 85.5383 105.759 85.0026 105.787C84.0702 105.836 83.1205 105.854 82.2008 105.869L81.7725 105.877L81.7204 105.88C81.5387 105.895 81.368 105.909 81.1957 105.912C81.1957 105.912 81.0709 105.933 81.033 105.911C80.9951 105.888 81.0488 105.746 81.0504 105.714C81.063 105.501 81.0504 105.288 81.0346 105.073C81.0156 104.809 80.9603 104.643 80.8939 104.277C80.8275 103.911 80.2397 103.09 79.9426 102.476C79.9031 102.395 79.8668 102.313 79.8288 102.227C79.7909 102.142 79.7688 102.069 79.7056 101.96C79.6424 101.85 79.5238 101.824 79.4259 101.767C79.0308 101.537 78.7211 101.475 78.2897 101.42C78.0305 101.387 77.6781 101.396 77.4506 101.385C77.0397 101.366 76.4961 101.401 76.3349 101.455C76.1737 101.509 75.9193 101.618 75.8261 101.673C75.7328 101.729 75.6175 101.797 75.4831 101.882C75.3789 101.949 75.2335 102.045 75.1323 102.126C75.0312 102.207 74.8337 102.452 74.8068 102.653C74.7799 102.854 74.6662 103.414 74.7183 104.011C74.7578 104.138 74.7752 104.625 74.7847 104.825C74.7973 105.099 74.8431 105.428 74.8779 105.586C74.9127 105.744 74.7436 106.002 74.7404 106.115C74.7199 106.116 74.7041 106.118 74.6978 106.118C74.6946 106.118 74.6598 106.118 74.603 106.131C74.3596 106.176 74.1984 106.202 74.1226 106.207L74.0657 106.21C73.7875 106.227 73.4747 106.249 73.2992 106.287C73.0164 106.349 72.773 106.36 72.4364 106.371C71.9466 106.387 70.9731 106.377 70.4753 106.368C69.7911 106.355 69.0831 106.341 68.3815 106.396C66.2956 106.559 64.2223 106.791 62.2201 107.085C61.656 107.167 61.1977 107.813 60.9733 108.191C60.7647 108.546 60.8327 109.204 61.114 109.548C61.6354 110.184 62.0463 110.686 62.6263 110.716C62.68 110.719 62.7385 110.721 62.7985 110.721C63.0118 110.721 63.2615 110.707 63.4859 110.692C63.7103 110.678 63.9442 110.664 64.0501 110.673C64.3993 110.7 64.8497 110.654 65.2842 110.612C65.4454 110.596 65.6034 110.58 65.7472 110.569C66.1518 110.537 66.5042 110.513 66.8171 110.491C67.1853 110.466 67.5029 110.444 67.7952 110.418C67.9201 110.407 68.2045 110.425 68.4337 110.437C68.5917 110.447 68.7371 110.455 68.8287 110.455C69.2965 110.456 69.7974 110.444 70.281 110.433C70.8783 110.417 71.4946 110.401 72.0588 110.414C72.4064 110.422 72.7525 110.43 73.1001 110.437C73.195 110.439 73.2913 110.447 73.3941 110.455C73.5695 110.468 73.7275 110.48 73.8982 110.472C74.1004 110.464 74.3074 110.442 74.4908 110.422C74.8179 110.385 75.1576 110.347 75.4531 110.395C75.5622 110.412 75.6712 110.433 75.7866 110.455C76.1484 110.525 76.5451 110.596 76.7379 110.589C76.9307 110.583 77.577 110.667 77.7634 110.654C78.0479 110.635 78.3292 110.593 78.6057 110.551C79.045 110.485 79.4986 110.417 79.9078 110.46C80.1259 110.482 80.3551 110.515 80.5573 110.544C80.9872 110.605 81.4312 110.669 81.8958 110.669C82.1265 110.669 82.343 110.653 82.5532 110.621C83.2722 110.51 84.0275 110.479 84.7576 110.449L85.1337 110.433C85.573 110.414 86.0187 110.418 86.3568 110.425H86.3758H86.3948C87.019 110.363 87.5957 110.322 88.1599 110.298H88.1883C88.2405 110.289 88.2911 110.282 88.3432 110.279C89.1681 110.216 90.0119 110.178 90.8305 110.141L91.1323 110.127C91.2572 110.121 91.3836 110.118 91.51 110.115C92.4803 110.089 93.6876 110.059 94.3529 108.72C94.5314 108.361 94.8996 107.24 94.2739 106.811L94.2723 106.813Z" fill="white"/>
</svg>
