<svg width="250" height="221" viewBox="0 0 250 221" fill="none" xmlns="http://www.w3.org/2000/svg">
<path opacity="0.93" d="M4.33931 191.935L152.457 10.2381C157.232 4.38152 164.381 0.986942 171.935 0.986942L231.436 1.11128C246.271 1.14859 254.428 18.3764 245.052 29.8719L97.5375 210.829C92.4518 217.071 84.8234 220.695 76.7722 220.695L17.9984 220.695C3.1456 220.695 -5.0486 203.449 4.33931 191.935Z" fill="#44C499"/>
<g clip-path="url(#clip0_360_2506)">
<mask id="mask0_360_2506" style="mask-type:luminance" maskUnits="userSpaceOnUse" x="31" y="74" width="167" height="92">
<path d="M197.554 74.8555H31.4463V165.145H197.554V74.8555Z" fill="white"/>
</mask>
<g mask="url(#mask0_360_2506)">
<path fill-rule="evenodd" clip-rule="evenodd" d="M60.4709 117.218C69.2649 117.218 76.4058 110.088 76.4058 101.283C76.4058 92.4778 69.2649 85.3369 60.4709 85.3369C51.6769 85.3369 44.536 92.489 44.536 101.283C44.536 110.077 51.6769 117.218 60.4709 117.218ZM60.4709 111.246C66.0037 111.246 70.4906 106.759 70.4906 101.227C70.4906 95.6938 66.0149 91.2069 60.4709 91.2069C54.9269 91.2069 50.4399 95.6938 50.4399 101.227C50.4399 106.759 54.9381 111.246 60.4709 111.246Z" fill="white"/>
<path fill-rule="evenodd" clip-rule="evenodd" d="M114.393 150.223C123.187 150.223 130.328 143.094 130.328 134.288C130.328 125.494 123.187 118.354 114.393 118.354C105.599 118.354 98.4583 125.494 98.4583 134.288C98.4583 143.082 105.599 150.223 114.393 150.223ZM114.393 144.24C119.926 144.24 124.413 139.753 124.413 134.22C124.413 128.688 119.926 124.201 114.393 124.201C108.86 124.201 104.373 128.688 104.373 134.22C104.373 139.753 108.86 144.24 114.393 144.24Z" fill="white"/>
<path d="M79.2284 118.972H41.7584C40.0008 118.972 38.5759 120.397 38.5759 122.154V123.515C38.5759 125.272 40.0008 126.697 41.7584 126.697H79.2284C80.986 126.697 82.4109 125.272 82.4109 123.515V122.154C82.4109 120.397 80.986 118.972 79.2284 118.972Z" fill="white"/>
<path d="M61.4155 113.112H59.3126C57.555 113.112 56.1301 114.537 56.1301 116.295V120.388C56.1301 122.146 57.555 123.571 59.3126 123.571H61.4155C63.1731 123.571 64.598 122.146 64.598 120.388V116.295C64.598 114.537 63.1731 113.112 61.4155 113.112Z" fill="white"/>
<path d="M75.866 140.507H47.6061C45.8484 140.507 44.4236 141.932 44.4236 143.689V145.174C44.4236 146.931 45.8484 148.356 47.6061 148.356H75.866C77.6237 148.356 79.0485 146.931 79.0485 145.174V143.689C79.0485 141.932 77.6237 140.507 75.866 140.507Z" fill="white"/>
<path d="M48.7081 129.43H47.7297C45.9721 129.43 44.5472 130.855 44.5472 132.612V145.173C44.5472 146.931 45.9721 148.356 47.7297 148.356H48.7081C50.4657 148.356 51.8906 146.931 51.8906 145.173V132.612C51.8906 130.855 50.4657 129.43 48.7081 129.43Z" fill="white"/>
<path d="M119.15 110.999C119.15 113.136 117.418 114.856 115.293 114.856C113.167 114.856 111.435 113.124 111.435 110.999V90.3299C111.435 88.1932 113.167 86.4727 115.293 86.4727C117.418 86.4727 119.15 88.2045 119.15 90.3299V110.999Z" fill="white"/>
<path d="M133.094 112.112C133.094 114.249 131.363 115.969 129.237 115.969C127.112 115.969 125.38 114.237 125.38 112.112V88.8338C125.38 86.6971 127.112 84.9766 129.237 84.9766C131.363 84.9766 133.094 86.7084 133.094 88.8338V112.123V112.112Z" fill="white"/>
<path d="M175.681 112.112C175.681 114.249 173.949 115.969 171.824 115.969C169.698 115.969 167.967 114.237 167.967 112.112V88.8338C167.967 86.6971 169.698 84.9766 171.824 84.9766C173.949 84.9766 175.681 86.7084 175.681 88.8338V112.123V112.112Z" fill="white"/>
<path d="M101.809 114.238C102.675 116.183 104.958 117.06 106.904 116.183C108.849 115.317 109.726 113.035 108.849 111.089L99.8302 88.2719C98.9642 86.3265 96.6814 85.4493 94.7359 86.3152C92.7905 87.1811 91.9133 89.464 92.7792 91.4094L101.798 114.227L101.809 114.238Z" fill="white"/>
<path d="M130.227 101.036C130.227 103.026 128.607 104.645 126.617 104.645H119.274C117.283 104.645 115.664 103.026 115.664 101.036C115.664 99.0451 117.283 97.4258 119.274 97.4258H126.617C128.607 97.4258 130.227 99.0451 130.227 101.036Z" fill="white"/>
<path d="M184.902 100.282C184.902 102.272 183.283 103.891 181.293 103.891H173.949C171.959 103.891 170.339 102.272 170.339 100.282C170.339 98.2912 171.959 96.6719 173.949 96.6719H181.293C183.283 96.6719 184.902 98.2912 184.902 100.282Z" fill="white"/>
<path d="M175.94 123.009C175.94 125.101 174.242 126.81 172.139 126.81H148.231C146.128 126.81 144.43 125.112 144.43 123.009C144.43 120.906 146.128 119.208 148.231 119.208H172.139C174.242 119.208 175.94 120.906 175.94 123.009Z" fill="white"/>
<path d="M165.099 89.4526C165.099 91.6567 163.311 93.4335 161.118 93.4335H142.934C140.73 93.4335 138.953 91.6454 138.953 89.4526C138.953 87.2597 140.741 85.4717 142.934 85.4717H161.118C163.322 85.4717 165.099 87.2597 165.099 89.4526Z" fill="white"/>
<path fill-rule="evenodd" clip-rule="evenodd" d="M85.7845 116.306C87.73 117.183 90.0128 116.306 90.8787 114.361L90.89 114.35L99.9089 91.5325C100.775 89.587 99.8976 87.3042 97.9522 86.4383C96.0067 85.5724 93.7239 86.4495 92.858 88.395L83.8391 111.212C82.9619 113.158 83.8391 115.44 85.7845 116.306ZM96.2316 92.4773C97.5024 92.4773 98.537 91.4427 98.537 90.172C98.537 88.9012 97.5024 87.8666 96.2316 87.8666C94.9609 87.8666 93.9263 88.9012 93.9263 90.172C93.9263 91.4427 94.9609 92.4773 96.2316 92.4773Z" fill="#E71E1F"/>
<path fill-rule="evenodd" clip-rule="evenodd" d="M150.671 115.677C152.616 116.554 154.899 115.677 155.765 113.731H155.776L164.795 90.9142C165.672 88.9688 164.795 86.6859 162.85 85.82C160.893 84.9429 158.61 85.82 157.744 87.7655L148.726 110.583C147.848 112.528 148.726 114.811 150.671 115.677ZM160.859 91.8252C162.13 91.8252 163.165 90.7906 163.165 89.5199C163.165 88.2491 162.13 87.2145 160.859 87.2145C159.589 87.2145 158.554 88.2491 158.554 89.5199C158.554 90.7906 159.589 91.8252 160.859 91.8252Z" fill="#009345"/>
<path fill-rule="evenodd" clip-rule="evenodd" d="M171.576 146.737C173.983 146.737 175.94 144.78 175.94 142.373V123.447C175.94 121.041 173.983 119.084 171.576 119.084C169.17 119.084 167.213 121.041 167.213 123.447V142.373C167.213 144.78 169.17 146.737 171.576 146.737ZM171.576 126C172.847 126 173.882 124.965 173.882 123.695C173.882 122.424 172.847 121.389 171.576 121.389C170.306 121.389 169.271 122.424 169.271 123.695C169.271 124.965 170.306 126 171.576 126Z" fill="#0070BA"/>
</g>
</g>
<defs>
<clipPath id="clip0_360_2506">
<rect width="166.107" height="90.29" fill="white" transform="translate(31.4463 74.8555)"/>
</clipPath>
</defs>
</svg>
