<svg width="215" height="214" viewBox="0 0 215 214" fill="none" xmlns="http://www.w3.org/2000/svg">
<rect x="0.5" width="214" height="214" rx="107" fill="#D30000"/>
<g clip-path="url(#clip0_32_2277)">
<mask id="mask0_32_2277" style="mask-type:luminance" maskUnits="userSpaceOnUse" x="44" y="76" width="127" height="62">
<path d="M170.397 76.7852H44.6031V137.215H170.397V76.7852Z" fill="white"/>
</mask>
<g mask="url(#mask0_32_2277)">
<path d="M72.4715 95.0094C72.4715 97.0687 70.7984 98.7332 68.7477 98.7332C66.6971 98.7332 65.0239 97.0687 65.0239 95.0094C65.0239 92.9502 66.6885 91.2856 68.7477 91.2856C70.8069 91.2856 72.4715 92.9502 72.4715 95.0094Z" fill="white"/>
<path d="M104.021 102.319C104.021 104.379 102.356 106.043 100.297 106.043C98.2377 106.043 96.5731 104.379 96.5731 102.319C96.5731 100.26 98.2377 98.5957 100.297 98.5957C102.356 98.5957 104.021 100.26 104.021 102.319Z" fill="white"/>
<path d="M79.4214 95.1552C79.4214 101.05 74.6594 105.829 68.782 105.829C62.9046 105.829 58.1426 101.05 58.1426 95.1552C58.1426 89.2606 62.9046 84.4814 68.782 84.4814C74.6594 84.4814 79.4214 89.2606 79.4214 95.1552ZM68.7133 89.0804C65.4357 89.0804 62.7844 91.7488 62.7844 95.0265C62.7844 98.3041 65.4443 100.972 68.7133 100.972C71.9824 100.972 74.6422 98.3126 74.6422 95.0265C74.6422 91.7403 71.9909 89.0804 68.7133 89.0804Z" fill="white"/>
<path d="M110.748 102.32C110.748 108.214 105.986 112.993 100.108 112.993C94.2307 112.993 89.4688 108.214 89.4688 102.32C89.4688 96.4251 94.2307 91.646 100.108 91.646C105.986 91.646 110.748 96.4251 110.748 102.32ZM100.039 96.674C96.7619 96.674 94.1106 99.3424 94.1106 102.62C94.1106 105.898 96.7619 108.566 100.039 108.566C103.317 108.566 105.968 105.906 105.968 102.62C105.968 99.3338 103.317 96.674 100.039 96.674Z" fill="white"/>
<path d="M87.1607 110.531C87.1607 112.127 85.7707 113.422 84.0547 113.422H53.149C51.433 113.422 50.043 112.127 50.043 110.531C50.043 108.935 51.433 107.639 53.149 107.639H84.0547C85.7707 107.639 87.1607 108.935 87.1607 110.531Z" fill="white"/>
<path d="M71.6049 103.443H65.7446V109.887H71.6049V103.443Z" fill="white"/>
<path d="M60.8625 123.83C60.8625 125.478 59.524 126.816 57.8766 126.816C56.2293 126.816 54.8907 125.478 54.8907 123.83V117.936C54.8907 116.288 56.2293 114.95 57.8766 114.95C59.524 114.95 60.8625 116.288 60.8625 117.936V123.83Z" fill="white"/>
<path d="M83.4026 124.173C83.4026 125.752 82.1242 127.03 80.5454 127.03H57.8938C56.3151 127.03 55.0366 125.752 55.0366 124.173C55.0366 122.594 56.3151 121.316 57.8938 121.316H80.5454C82.1242 121.316 83.4026 122.594 83.4026 124.173Z" fill="white"/>
<path d="M98.6323 123.83C98.6323 125.478 97.2938 126.816 95.6464 126.816C93.999 126.816 92.6605 125.478 92.6605 123.83V117.936C92.6605 116.288 93.999 114.95 95.6464 114.95C97.2938 114.95 98.6323 116.288 98.6323 117.936V123.83Z" fill="white"/>
<path d="M121.164 124.173C121.164 125.752 119.885 127.03 118.307 127.03H95.655C94.0763 127.03 92.7979 125.752 92.7979 124.173C92.7979 122.594 94.0763 121.316 95.655 121.316H118.307C119.885 121.316 121.164 122.594 121.164 124.173Z" fill="white"/>
<path d="M103.369 91.2169C103.369 92.7785 102.107 94.0398 100.546 94.0398C98.9842 94.0398 97.7229 92.7785 97.7229 91.2169V88.6085C97.7229 87.0469 98.9842 85.7856 100.546 85.7856C102.107 85.7856 103.369 87.0469 103.369 88.6085V91.2169Z" fill="white"/>
<path d="M112.198 93.0614C112.198 94.683 110.885 95.9958 109.272 95.9958H91.9742C90.3525 95.9958 89.0483 94.683 89.0483 93.0614C89.0483 91.4397 90.3611 90.127 91.9742 90.127H109.272C110.893 90.127 112.198 91.4397 112.198 93.0614Z" fill="white"/>
<path d="M116.102 100.621C116.102 97.9265 117.946 95.6699 120.443 95.0264V88.9002C120.443 87.2185 119.079 85.8628 117.406 85.8628C115.733 85.8628 114.368 87.2185 114.368 88.9002V111.114C114.368 112.796 115.733 114.152 117.406 114.152C119.079 114.152 120.443 112.787 120.443 111.114V106.223C117.946 105.58 116.102 103.323 116.102 100.629" fill="white"/>
<path d="M125.583 100.329C125.583 102.208 124.055 103.727 122.185 103.727C120.314 103.727 118.787 102.208 118.787 100.329C118.787 98.4498 120.314 96.9312 122.185 96.9312C124.055 96.9312 125.583 98.4498 125.583 100.329Z" fill="white"/>
<path d="M158.067 89.6982C158.067 91.337 156.737 92.667 155.098 92.667H135.63C133.991 92.667 132.661 91.337 132.661 89.6982C132.661 88.0594 133.991 86.7295 135.63 86.7295H155.098C156.737 86.7295 158.067 88.0594 158.067 89.6982Z" fill="white"/>
<path d="M161.688 100.406C161.688 102.088 160.324 103.443 158.65 103.443H130.868C129.186 103.443 127.831 102.079 127.831 100.406C127.831 98.7329 129.195 97.3687 130.868 97.3687H158.65C160.332 97.3687 161.688 98.7329 161.688 100.406Z" fill="white"/>
<path d="M151.701 91.8688C151.701 91.8688 150.396 97.2228 147.797 99.3935L152.936 101.127C152.936 101.127 158.359 96.9997 158.076 89.698L151.126 87.7417L151.701 91.8688Z" fill="white"/>
<path d="M161.525 124.585C161.525 126.559 159.92 128.163 157.947 128.163C155.974 128.163 154.369 126.559 154.369 124.585C154.369 122.612 155.974 121.007 157.947 121.007C159.92 121.007 161.525 122.612 161.525 124.585Z" fill="white"/>
<path d="M151.829 124.482C151.829 123.53 152.052 122.629 152.43 121.823H137.089V119H155.107C155.879 118.579 156.763 118.33 157.69 118.279C158.282 117.756 158.651 116.992 158.651 116.142C158.651 115.997 158.633 115.851 158.616 115.713V108.909H158.565C158.573 108.815 158.582 108.721 158.582 108.618C158.582 107.082 157.338 105.829 155.793 105.829H134.446C132.91 105.829 131.657 107.073 131.657 108.618C131.657 110.162 132.901 111.406 134.446 111.406H152.644V113.285H134.446C133.571 113.285 132.781 113.68 132.258 114.306C131.58 114.847 131.151 115.679 131.151 116.614V124.431C131.151 125.126 131.391 125.761 131.795 126.267C132.309 127.116 133.236 127.683 134.3 127.683H152.722C152.155 126.748 151.829 125.658 151.829 124.482Z" fill="white"/>
</g>
</g>
<defs>
<clipPath id="clip0_32_2277">
<rect width="125.794" height="60.43" fill="white" transform="translate(44.6031 76.7852)"/>
</clipPath>
</defs>
</svg>
