<svg width="42" height="43" viewBox="0 0 42 43" fill="none" xmlns="http://www.w3.org/2000/svg">
<path d="M35.4375 12.699H6.5625C5.83763 12.699 5.25 13.2866 5.25 14.0115V35.0115C5.25 35.7363 5.83763 36.324 6.5625 36.324H35.4375C36.1624 36.324 36.75 35.7363 36.75 35.0115V14.0115C36.75 13.2866 36.1624 12.699 35.4375 12.699Z" stroke="#3A3A3A" stroke-width="2" stroke-linecap="round" stroke-linejoin="round"/>
<path d="M27.5625 12.699V10.074C27.5625 9.37778 27.2859 8.7101 26.7937 8.21782C26.3014 7.72554 25.6337 7.44897 24.9375 7.44897H17.0625C16.3663 7.44897 15.6986 7.72554 15.2063 8.21782C14.7141 8.7101 14.4375 9.37778 14.4375 10.074V12.699" stroke="#3A3A3A" stroke-width="2" stroke-linecap="round" stroke-linejoin="round"/>
<path d="M21 19.9177V29.1052" stroke="#3A3A3A" stroke-width="2" stroke-linecap="round" stroke-linejoin="round"/>
<path d="M25.5938 24.5115H16.4062" stroke="#3A3A3A" stroke-width="2" stroke-linecap="round" stroke-linejoin="round"/>
</svg>
