<svg width="32" height="33" viewBox="0 0 32 33" fill="none" xmlns="http://www.w3.org/2000/svg">
<path d="M11 29.8865H21" stroke="black" stroke-width="2" stroke-linecap="round" stroke-linejoin="round"/>
<path d="M16 25.8865V18.8865" stroke="black" stroke-width="2" stroke-linecap="round" stroke-linejoin="round"/>
<path d="M12 14.8865L16 18.8865L20 14.8865" stroke="black" stroke-width="2" stroke-linecap="round" stroke-linejoin="round"/>
<path d="M9.83761 21.7614C8.6471 20.8357 7.68288 19.6512 7.01801 18.2976C6.35313 16.944 6.00504 15.4569 6.00011 13.9489C5.97511 8.52385 10.3376 4.01135 15.7626 3.88635C17.8622 3.83658 19.9242 4.44911 21.6561 5.63706C23.388 6.82501 24.7019 8.52809 25.4115 10.5047C26.1211 12.4814 26.1904 14.6313 25.6094 16.6495C25.0285 18.6678 23.827 20.4519 22.1751 21.7489C21.8102 22.0309 21.5146 22.3927 21.311 22.8065C21.1073 23.2203 21.001 23.6752 21.0001 24.1364V24.8864C21.0001 25.1516 20.8948 25.4059 20.7072 25.5935C20.5197 25.781 20.2653 25.8864 20.0001 25.8864H12.0001C11.7349 25.8864 11.4805 25.781 11.293 25.5935C11.1055 25.4059 11.0001 25.1516 11.0001 24.8864V24.1364C10.997 23.6786 10.8909 23.2275 10.6896 22.8163C10.4884 22.4052 10.1972 22.0446 9.83761 21.7614V21.7614Z" stroke="black" stroke-width="2" stroke-linecap="round" stroke-linejoin="round"/>
</svg>
