<svg width="174" height="118" viewBox="0 0 174 118" fill="none" xmlns="http://www.w3.org/2000/svg">
<path d="M78.9688 13.5574H43.9982C36.2206 13.5574 29.9069 19.8269 29.9069 27.5682M30.0814 95.6202V81.7186M16.0523 115.047H79.0266C86.8042 115.047 93.1179 108.763 93.1179 101.021L92.8813 91.0967M54.3857 58.9692H69.1719M54.3857 47.1956H69.1719M60.2591 101.036V95.6202H2.17896V101.036C2.17896 108.777 8.47787 115.062 16.2554 115.062H70.6981C71.3192 115.062 71.9106 115.003 72.5168 114.929C65.6117 114.031 60.2591 108.174 60.2591 101.051V101.036Z" stroke="#0098ED" stroke-width="4" stroke-linecap="round" stroke-linejoin="round"/>
<path d="M43.0755 80.044H13.4573V67.8161C13.4573 63.2367 17.1837 59.516 21.7699 59.516H38.3358C42.9221 59.516 46.6484 63.2367 46.6484 67.8161M21.2658 68.429V79.5812M39.0575 68.429V79.5812M21.6216 45.6207C21.6216 50.2865 25.4096 54.0688 30.0824 54.0688C34.7552 54.0688 38.5433 50.2865 38.5433 45.6207C38.5433 40.955 34.7552 37.1727 30.0824 37.1727C25.4096 37.1727 21.6216 40.955 21.6216 45.6207Z" stroke="#0098ED" stroke-width="4" stroke-miterlimit="10" stroke-linecap="round"/>
<path d="M90.5559 72.7082C76.4667 58.7502 76.4667 36.1198 90.5559 22.1618C104.645 8.20384 127.488 8.20384 141.577 22.1618M171.743 82.1434L165.285 75.3982M165.285 75.3982L157.289 67.047M165.285 75.3982L144.091 96.6109M165.285 75.3982L165.458 75.2242M135.921 89.0627L150.376 102.901M147.9 15.5229C130.352 -2.16356 101.899 -2.16356 84.3516 15.5229C66.8037 33.2094 66.8037 61.8871 84.3516 79.5736C98.7879 94.124 120.6 96.7006 137.654 87.3127C141.33 85.2887 144.786 82.7097 147.9 79.5736C152.23 75.2094 155.491 70.1743 157.684 64.8004C164.376 48.4011 161.118 28.8452 147.9 15.5229Z" stroke="#0E1D4B" stroke-width="4" stroke-linecap="round" stroke-linejoin="round"/>
<path d="M101.985 50.0635L105.127 53.2086M120.21 67.676L123.352 71.4501M123.352 50.0635L120.21 53.2086M112.669 45.6603V50.0635M112.669 70.8211V75.8533M97.5858 60.7568H102.613M105.127 67.676L101.985 71.4502M123.352 60.7568H127.751M98.2143 27.7958V32.3238C98.2143 34.8251 100.288 36.8541 102.848 36.8541C105.407 36.8541 107.483 34.8273 107.483 32.3238V30.0598C107.483 27.5585 109.557 25.5317 112.119 25.5317C114.679 25.5317 116.755 27.5585 116.755 30.0598V32.3238C116.755 34.8251 118.829 36.8541 121.388 36.8541C123.948 36.8541 126.022 34.8273 126.022 32.3238V30.0598C126.022 27.5585 128.098 25.5317 130.657 25.5317H135.293M120.315 53.1035C124.365 57.1568 124.365 63.7278 120.315 67.7811C116.265 71.8344 109.699 71.8344 105.651 67.7811C101.601 63.7278 101.601 57.1568 105.651 53.1035C109.701 49.0502 116.267 49.0502 120.315 53.1035ZM135.905 72.0953C136.765 72.9555 136.765 74.3479 135.905 75.2081C135.046 76.0683 133.655 76.0683 132.795 75.2081C131.936 74.3479 131.936 72.9555 132.795 72.0953C133.655 71.2351 135.046 71.2351 135.905 72.0953ZM95.7004 52.8941C95.7004 54.11 94.7156 55.0957 93.5008 55.0957C92.286 55.0957 91.3013 54.11 91.3013 52.8941C91.3013 51.6782 92.286 50.6925 93.5008 50.6925C94.7156 50.6925 95.7004 51.6782 95.7004 52.8941ZM91.3013 43.4588C91.3013 44.6747 90.3165 45.6604 89.1017 45.6604C87.8869 45.6604 86.9021 44.6747 86.9021 43.4588C86.9021 42.2429 87.8869 41.2572 89.1017 41.2572C90.3165 41.2572 91.3013 42.2429 91.3013 43.4588ZM139.692 34.338C139.692 35.7276 138.707 36.8541 137.492 36.8541C136.278 36.8541 135.293 35.7276 135.293 34.338C135.293 32.9484 136.278 31.8219 137.492 31.8219C138.707 31.8219 139.692 32.9484 139.692 34.338Z" stroke="#0E1D4B" stroke-width="4" stroke-linecap="round" stroke-linejoin="round"/>
</svg>
