<svg width="172" height="146" viewBox="0 0 172 146" fill="none" xmlns="http://www.w3.org/2000/svg">
<path d="M6.3375 93.1325C6.3375 94.1771 5.4855 95.0366 4.41875 95.0366C3.352 95.0366 2.5 94.1771 2.5 93.1325C2.5 92.0879 3.35201 91.2284 4.41875 91.2284C5.48549 91.2284 6.3375 92.0879 6.3375 93.1325ZM55.5 20.7281C55.5 21.7727 54.648 22.6323 53.5812 22.6323C52.5145 22.6323 51.6625 21.7727 51.6625 20.7281C51.6625 19.6835 52.5145 18.824 53.5812 18.824C54.648 18.824 55.5 19.6835 55.5 20.7281ZM169.5 124.366C169.5 125.41 168.648 126.27 167.581 126.27C166.515 126.27 165.663 125.41 165.663 124.366C165.663 123.321 166.515 122.461 167.581 122.461C168.648 122.461 169.5 123.321 169.5 124.366Z" stroke="#0098ED" stroke-width="4"/>
<path d="M122.338 63.674L144.425 63.674M144.425 63.674C144.425 68.7705 148.572 72.9023 153.687 72.9023C158.803 72.9023 162.95 68.7708 162.95 63.6743C162.95 58.5778 158.803 54.4463 153.687 54.4463C148.572 54.4463 144.425 58.5775 144.425 63.674ZM34.7 63.674L48.2375 63.674M31.8501 121.172L44.6751 108.394M34.7 63.3195C34.7 66.2597 32.3075 68.6433 29.3562 68.6433C26.405 68.6433 24.0125 66.2597 24.0125 63.3195C24.0125 60.3792 26.405 57.9956 29.3562 57.9956C32.3075 57.9956 34.7 60.3792 34.7 63.3195ZM34.7 127.56C34.7 132.657 30.5531 136.788 25.4375 136.788C20.322 136.788 16.175 132.657 16.175 127.56C16.175 122.464 20.322 118.332 25.4375 118.332C30.5531 118.332 34.7 122.464 34.7 127.56Z" stroke="#0098ED" stroke-width="4"/>
<path d="M110.168 44.5082L137.956 16.8243M148.7 13.2752C148.7 16.8035 145.829 19.6638 142.287 19.6638C138.746 19.6638 135.875 16.8035 135.875 13.2752C135.875 9.74682 138.746 6.88655 142.287 6.88655C145.829 6.88655 148.7 9.74682 148.7 13.2752Z" stroke="#0098ED" stroke-width="4"/>
<path d="M95.9749 31.6602V37.0325C95.9749 40.3773 93.2634 43.0887 89.9187 43.0887V43.0887C86.5739 43.0887 83.8624 40.3773 83.8624 37.0325V32.3701H89.9187V21.048M89.9187 21.048L86.4124 17.5343M89.9187 21.048L93.4249 17.5343M95.1691 27.6526C99.4525 25.4775 102.387 21.0321 102.387 15.9017C102.387 8.62663 96.486 2.729 89.2061 2.729C81.9263 2.729 76.0249 8.62663 76.0249 15.9017C76.0249 21.5939 79.6377 26.4429 84.6968 28.2834" stroke="#0098ED" stroke-width="4"/>
<path d="M113.787 96.3271C113.787 96.2086 113.787 96.0902 113.787 95.9719M113.787 95.9719C113.682 71.0451 102.558 50.897 88.85 50.897C75.0774 50.897 63.9124 71.2368 63.9124 96.3271M113.787 95.9719L42.8936 95.9719M113.787 95.9719H136.231M113.202 106.159C110.736 126.523 100.769 141.757 88.85 141.757C76.9305 141.757 66.9642 126.523 64.498 106.159M89.5624 105.555V142.466M89.5624 49.4768V94.5519M137.3 96.3269C137.3 122.593 115.927 143.887 89.5624 143.887C63.1978 143.887 41.825 122.593 41.825 96.3269C41.825 70.0605 63.1978 48.7673 89.5624 48.7673C115.927 48.7673 137.3 70.0605 137.3 96.3269Z" stroke="#0E1D4B" stroke-width="4"/>
</svg>
