<svg width="32" height="33" viewBox="0 0 32 33" fill="none" xmlns="http://www.w3.org/2000/svg">
<path d="M12 27.8864H6.00001C5.73479 27.8864 5.48044 27.781 5.2929 27.5935C5.10536 27.4059 5.00001 27.1516 5.00001 26.8864V21.2989C4.99955 21.169 5.02471 21.0403 5.07404 20.9202C5.12338 20.8001 5.19591 20.6909 5.28751 20.5989L20.2875 5.59887C20.3806 5.50438 20.4915 5.42935 20.6138 5.37813C20.7361 5.32691 20.8674 5.30054 21 5.30054C21.1326 5.30054 21.2639 5.32691 21.3862 5.37813C21.5085 5.42935 21.6195 5.50438 21.7125 5.59887L27.2875 11.1739C27.382 11.2669 27.457 11.3778 27.5082 11.5001C27.5595 11.6225 27.5858 11.7538 27.5858 11.8864C27.5858 12.019 27.5595 12.1503 27.5082 12.2726C27.457 12.3949 27.382 12.5058 27.2875 12.5989L12 27.8864Z" stroke="black" stroke-width="2" stroke-linecap="round" stroke-linejoin="round"/>
<path d="M27 27.8865H12" stroke="black" stroke-width="2" stroke-linecap="round" stroke-linejoin="round"/>
<path d="M17 8.88647L24 15.8865" stroke="black" stroke-width="2" stroke-linecap="round" stroke-linejoin="round"/>
</svg>
