<svg width="42" height="43" viewBox="0 0 42 43" fill="none" xmlns="http://www.w3.org/2000/svg">
<path d="M15.4219 10.9599C15.0296 10.21 14.9422 9.33754 15.178 8.52475C15.4138 7.71195 15.9546 7.0217 16.6873 6.59817C17.42 6.17464 18.288 6.05059 19.11 6.25194C19.932 6.45328 20.6444 6.96445 21.0985 7.67866L26.0203 16.1935" stroke="#3A3A3A" stroke-width="2" stroke-linecap="round" stroke-linejoin="round"/>
<path d="M11.0579 16.5052L8.43287 11.9606C8.04059 11.2107 7.95322 10.3383 8.18902 9.52548C8.42482 8.71269 8.96555 8.02243 9.69825 7.5989C10.431 7.17537 11.299 7.05132 12.121 7.25267C12.943 7.45402 13.6554 7.96518 14.1094 8.6794L19.6876 18.3427" stroke="#3A3A3A" stroke-width="2" stroke-linecap="round" stroke-linejoin="round"/>
<path d="M25.2655 28.006C24.8332 27.2609 24.5522 26.4378 24.4387 25.5839C24.3251 24.73 24.3812 23.8621 24.6037 23.0299C24.8262 22.1977 25.2108 21.4176 25.7354 20.7344C26.26 20.0511 26.9143 19.4781 27.6608 19.0482L26.0202 16.1935C25.5851 15.4386 25.4677 14.5417 25.6938 13.7002C25.92 12.8587 26.4711 12.1415 27.2261 11.7064C27.981 11.2713 28.8779 11.1539 29.7194 11.38C30.5609 11.6062 31.2781 12.1573 31.7132 12.9123L34.9944 18.6052C36.7349 21.6206 37.2062 25.2039 36.3048 28.5668C35.4033 31.9297 33.2028 34.7968 30.1874 36.5373C27.172 38.2778 23.5887 38.7491 20.2258 37.8476C16.8629 36.9461 13.9958 34.7456 12.2554 31.7303L5.36474 19.7865C5.14929 19.4127 5.00957 19.0001 4.95357 18.5723C4.89757 18.1445 4.92638 17.7099 5.03836 17.2932C5.2645 16.4517 5.81566 15.7345 6.5706 15.2994C7.32553 14.8643 8.2224 14.7469 9.06389 14.973C9.90539 15.1992 10.6226 15.7503 11.0577 16.5052L14.6671 22.756" stroke="#3A3A3A" stroke-width="2" stroke-linecap="round" stroke-linejoin="round"/>
<path d="M13.3055 40.2615C11.0762 38.7239 9.22041 36.7055 7.875 34.3552" stroke="#3A3A3A" stroke-width="2" stroke-linecap="round" stroke-linejoin="round"/>
<path d="M28.875 5.97244C30.3726 5.96838 31.8446 6.36092 33.1414 7.11015C34.4381 7.85938 35.5134 8.93858 36.2578 10.2381" stroke="#3A3A3A" stroke-width="2" stroke-linecap="round" stroke-linejoin="round"/>
</svg>
