<svg width="42" height="43" viewBox="0 0 42 43" fill="none" xmlns="http://www.w3.org/2000/svg">
<path d="M21 37.6365C29.6985 37.6365 36.75 30.585 36.75 21.8865C36.75 13.188 29.6985 6.13647 21 6.13647C12.3015 6.13647 5.25 13.188 5.25 21.8865C5.25 30.585 12.3015 37.6365 21 37.6365Z" stroke="#3A3A3A" stroke-width="2" stroke-miterlimit="10"/>
<path d="M15.0938 20.574C16.1811 20.574 17.0625 19.6925 17.0625 18.6052C17.0625 17.5179 16.1811 16.6365 15.0938 16.6365C14.0064 16.6365 13.125 17.5179 13.125 18.6052C13.125 19.6925 14.0064 20.574 15.0938 20.574Z" fill="#3A3A3A"/>
<path d="M26.9062 20.574C27.9936 20.574 28.875 19.6925 28.875 18.6052C28.875 17.5179 27.9936 16.6365 26.9062 16.6365C25.8189 16.6365 24.9375 17.5179 24.9375 18.6052C24.9375 19.6925 25.8189 20.574 26.9062 20.574Z" fill="#3A3A3A"/>
<path d="M15.0938 20.574C16.1811 20.574 17.0625 19.6925 17.0625 18.6052C17.0625 17.5179 16.1811 16.6365 15.0938 16.6365C14.0064 16.6365 13.125 17.5179 13.125 18.6052C13.125 19.6925 14.0064 20.574 15.0938 20.574Z" fill="#3A3A3A"/>
<path d="M26.9062 20.574C27.9936 20.574 28.875 19.6925 28.875 18.6052C28.875 17.5179 27.9936 16.6365 26.9062 16.6365C25.8189 16.6365 24.9375 17.5179 24.9375 18.6052C24.9375 19.6925 25.8189 20.574 26.9062 20.574Z" fill="#3A3A3A"/>
<path d="M27.825 29.7614C27.1312 28.5661 26.1356 27.5739 24.9378 26.8842C23.7401 26.1945 22.3822 25.8315 21 25.8315C19.6179 25.8315 18.26 26.1945 17.0623 26.8842C15.8645 27.5739 14.8689 28.5661 14.175 29.7614" stroke="#3A3A3A" stroke-width="2" stroke-linecap="round" stroke-linejoin="round"/>
</svg>
