<svg width="172" height="118" viewBox="0 0 172 118" fill="none" xmlns="http://www.w3.org/2000/svg">
<g clip-path="url(#clip0_219_766)">
<path d="M105.745 74.0592V94.3705V114.682M120.746 74.0592L135.122 115.932M84.4929 90.9332L90.1184 74.0592M76.4001 72.6331L146.359 74.0592C148.783 74.0592 150.748 72.1103 150.748 69.7063V7.16638C150.748 4.76234 148.783 2.81348 146.359 2.81348H65.1299C62.706 2.81348 60.741 4.76234 60.741 7.16638V23.1987M60.741 50.6397V36.9494M92.6186 27.187L112.62 49.0606M51.9616 32.783L80.0889 22.7836M122.621 50.3106L157.624 25.3121M75.1172 43.436H85.743M75.1172 52.8105H85.743M121.996 19.0625H140.122M94.4937 20.9374C94.4937 24.7341 91.4155 27.812 87.6182 27.812C83.8209 27.812 80.7426 24.7341 80.7426 20.9374C80.7426 17.1407 83.8209 14.0628 87.6182 14.0628C91.4155 14.0628 94.4937 17.1407 94.4937 20.9374ZM123.871 54.3728C123.871 58.3422 120.653 61.5599 116.683 61.5599C112.713 61.5599 109.495 58.3422 109.495 54.3728C109.495 50.4035 112.713 47.1858 116.683 47.1858C120.653 47.1858 123.871 50.4035 123.871 54.3728ZM170.125 21.2499C170.125 25.2192 167.047 28.437 163.249 28.437C159.452 28.437 156.374 25.2192 156.374 21.2499C156.374 17.2806 159.452 14.0628 163.249 14.0628C167.047 14.0628 170.125 17.2806 170.125 21.2499ZM53.2404 36.249C53.2404 40.2183 50.0222 43.4361 46.0523 43.4361C42.0825 43.4361 38.8643 40.2183 38.8643 36.249C38.8643 32.2797 42.0825 29.0619 46.0523 29.0619C50.0222 29.0619 53.2404 32.2797 53.2404 36.249Z" stroke="#0E1D4B" stroke-width="4" stroke-miterlimit="10" stroke-linecap="round"/>
<path d="M40.8244 115.665H82.6357V98.4208C82.6357 91.963 77.3753 86.7161 70.9009 86.7161H47.5152C41.0409 86.7161 35.7805 91.963 35.7805 98.4208M71.6126 99.2837V115.011M46.4967 99.2837V115.011M71.1102 69.081C71.1102 75.6606 65.7627 80.9945 59.1662 80.9945C52.5697 80.9945 47.2222 75.6606 47.2222 69.081C47.2222 62.5013 52.5697 57.1675 59.1662 57.1675C65.7627 57.1675 71.1102 62.5013 71.1102 69.081Z" stroke="#0098ED" stroke-width="4" stroke-miterlimit="10" stroke-linecap="round"/>
<path d="M18.4957 100.674C18.4957 99.5693 19.3911 98.6738 20.4957 98.6738H21.3764C22.4809 98.6738 23.3764 99.5693 23.3764 100.674V113.886C23.3764 114.99 22.4809 115.886 21.3764 115.886H20.4957C19.3911 115.886 18.4957 114.99 18.4957 113.886V100.674ZM5.68042 95.009C5.68042 94.6699 5.95545 94.3945 6.29531 94.3945H9.94624C10.2861 94.3945 10.5611 94.6699 10.5611 95.0091V115.925C10.5611 116.264 10.2861 116.54 9.94624 116.54H6.29531C5.95545 116.54 5.68042 116.264 5.68042 115.925V95.009ZM30.0038 107.181C30.0038 106.842 30.2788 106.567 30.6186 106.567H34.2696C34.6094 106.567 34.8845 106.842 34.8845 107.181V115.271C34.8845 115.611 34.6094 115.886 34.2696 115.886H30.6186C30.2788 115.886 30.0038 115.611 30.0038 115.271V107.181Z" stroke="#0E1D4B" stroke-width="4"/>
</g>
<defs>
<clipPath id="clip0_219_766">
<rect width="172" height="117" fill="white" transform="translate(0 0.886475)"/>
</clipPath>
</defs>
</svg>
