<svg width="32" height="33" viewBox="0 0 32 33" fill="none" xmlns="http://www.w3.org/2000/svg">
<path d="M18.7125 25.374L16.8625 28.4615C16.7719 28.6088 16.6451 28.7305 16.4941 28.8149C16.3431 28.8993 16.173 28.9436 16 28.9436C15.827 28.9436 15.6569 28.8993 15.5059 28.8149C15.3549 28.7305 15.2281 28.6088 15.1375 28.4615L13.2875 25.374C13.2005 25.2258 13.0763 25.1029 12.9272 25.0174C12.7782 24.9319 12.6094 24.8867 12.4375 24.8865H5C4.73478 24.8865 4.48043 24.7811 4.29289 24.5936C4.10536 24.406 4 24.1517 4 23.8865V7.88647C4 7.62126 4.10536 7.3669 4.29289 7.17937C4.48043 6.99183 4.73478 6.88647 5 6.88647H27C27.2652 6.88647 27.5196 6.99183 27.7071 7.17937C27.8946 7.3669 28 7.62126 28 7.88647V23.8865C28 24.1517 27.8946 24.406 27.7071 24.5936C27.5196 24.7811 27.2652 24.8865 27 24.8865H19.5625C19.3906 24.8867 19.2218 24.9319 19.0728 25.0174C18.9237 25.1029 18.7995 25.2258 18.7125 25.374V25.374Z" stroke="black" stroke-width="2" stroke-linecap="round" stroke-linejoin="round"/>
<path d="M16 17.3865C16.8284 17.3865 17.5 16.7149 17.5 15.8865C17.5 15.058 16.8284 14.3865 16 14.3865C15.1716 14.3865 14.5 15.058 14.5 15.8865C14.5 16.7149 15.1716 17.3865 16 17.3865Z" fill="black"/>
<path d="M10 17.3865C10.8284 17.3865 11.5 16.7149 11.5 15.8865C11.5 15.058 10.8284 14.3865 10 14.3865C9.17157 14.3865 8.5 15.058 8.5 15.8865C8.5 16.7149 9.17157 17.3865 10 17.3865Z" fill="black"/>
<path d="M22 17.3865C22.8284 17.3865 23.5 16.7149 23.5 15.8865C23.5 15.058 22.8284 14.3865 22 14.3865C21.1716 14.3865 20.5 15.058 20.5 15.8865C20.5 16.7149 21.1716 17.3865 22 17.3865Z" fill="black"/>
</svg>
