<svg width="42" height="43" viewBox="0 0 42 43" fill="none" xmlns="http://www.w3.org/2000/svg">
<path d="M14.4375 10.074H10.5C9.77513 10.074 9.1875 10.6616 9.1875 11.3865V32.3865C9.1875 33.1113 9.77513 33.699 10.5 33.699H14.4375C15.1624 33.699 15.75 33.1113 15.75 32.3865V11.3865C15.75 10.6616 15.1624 10.074 14.4375 10.074Z" stroke="#3A3A3A" stroke-width="2" stroke-linecap="round" stroke-linejoin="round"/>
<path d="M31.5 10.074H27.5625C26.8376 10.074 26.25 10.6616 26.25 11.3865V32.3865C26.25 33.1113 26.8376 33.699 27.5625 33.699H31.5C32.2249 33.699 32.8125 33.1113 32.8125 32.3865V11.3865C32.8125 10.6616 32.2249 10.074 31.5 10.074Z" stroke="#3A3A3A" stroke-width="2" stroke-linecap="round" stroke-linejoin="round"/>
<path d="M32.8125 14.0115H36.75C37.0981 14.0115 37.4319 14.1498 37.6781 14.3959C37.9242 14.642 38.0625 14.9759 38.0625 15.324V28.449C38.0625 28.7971 37.9242 29.1309 37.6781 29.3771C37.4319 29.6232 37.0981 29.7615 36.75 29.7615H32.8125" stroke="#3A3A3A" stroke-width="2" stroke-linecap="round" stroke-linejoin="round"/>
<path d="M9.1875 29.7615H5.25C4.9019 29.7615 4.56806 29.6232 4.32192 29.3771C4.07578 29.1309 3.9375 28.7971 3.9375 28.449V15.324C3.9375 14.9759 4.07578 14.642 4.32192 14.3959C4.56806 14.1498 4.9019 14.0115 5.25 14.0115H9.1875" stroke="#3A3A3A" stroke-width="2" stroke-linecap="round" stroke-linejoin="round"/>
<path d="M15.75 21.8865H26.25" stroke="#3A3A3A" stroke-width="2" stroke-linecap="round" stroke-linejoin="round"/>
<path d="M38.0625 21.8865H40.6875" stroke="#3A3A3A" stroke-width="2" stroke-linecap="round" stroke-linejoin="round"/>
<path d="M1.3125 21.8865H3.9375" stroke="#3A3A3A" stroke-width="2" stroke-linecap="round" stroke-linejoin="round"/>
</svg>
