<svg width="42" height="43" viewBox="0 0 42 43" fill="none" xmlns="http://www.w3.org/2000/svg">
<path d="M21 15.324C21 13.9316 21.5531 12.5962 22.5377 11.6117C23.5223 10.6271 24.8576 10.074 26.25 10.074H36.75C37.0981 10.074 37.4319 10.2123 37.6781 10.4584C37.9242 10.7045 38.0625 11.0384 38.0625 11.3865V32.3865C38.0625 32.7346 37.9242 33.0684 37.6781 33.3146C37.4319 33.5607 37.0981 33.699 36.75 33.699H26.25C24.8576 33.699 23.5223 34.2521 22.5377 35.2367C21.5531 36.2212 21 37.5566 21 38.949" stroke="#3A3A3A" stroke-width="2" stroke-linecap="round" stroke-linejoin="round"/>
<path d="M3.9375 32.3865C3.9375 32.7346 4.07578 33.0684 4.32192 33.3146C4.56806 33.5607 4.9019 33.699 5.25 33.699H15.75C17.1424 33.699 18.4777 34.2521 19.4623 35.2367C20.4469 36.2212 21 37.5566 21 38.949V15.324C21 13.9316 20.4469 12.5962 19.4623 11.6117C18.4777 10.6271 17.1424 10.074 15.75 10.074H5.25C4.9019 10.074 4.56806 10.2123 4.32192 10.4584C4.07578 10.7045 3.9375 11.0384 3.9375 11.3865V32.3865Z" stroke="#3A3A3A" stroke-width="2" stroke-linecap="round" stroke-linejoin="round"/>
</svg>
