<svg width="178" height="188" viewBox="0 0 178 188" fill="none" xmlns="http://www.w3.org/2000/svg">
<path d="M38.5476 75.5429V69.8751M117.682 75.5429V69.8751M49.8543 75.5429V69.8751M95.069 75.555V69.8873M61.161 75.555V69.8873M106.376 75.555V69.8873M72.4556 75.555V69.8873M83.7623 75.555V69.8873M110.927 31.8639H142.717M110.927 46.2091H125.236M1.25 41.4152H37.8091M47.0337 102.515H30.4791C28.5971 102.515 27.0714 100.986 27.0714 99.1008V82.8082M27.0714 23.8225V7.2116C27.0714 5.32597 28.5971 3.79736 30.4791 3.79736H47.0337M105.565 3.79736H122.119C124.001 3.79736 125.527 5.32597 125.527 7.2116V23.8103" stroke="#0098ED" stroke-width="4"/>
<path d="M86.7282 42.0464V55.7606M64.938 42.0464V55.7606M86.2925 13.9991C86.2925 19.7367 81.653 24.3879 75.93 24.3879C70.207 24.3879 65.5675 19.7367 65.5675 13.9991C65.5675 8.26157 70.207 3.61035 75.93 3.61035C81.653 3.61035 86.2925 8.26157 86.2925 13.9991ZM65.8096 31.0872H86.0987C91.7158 31.0872 96.2796 35.6626 96.2796 41.2939V56.331H55.6409V41.2939C55.6409 35.6626 60.2047 31.0872 65.8217 31.0872H65.8096Z" stroke="#0098ED" stroke-width="4" stroke-miterlimit="10" stroke-linecap="round"/>
<path d="M108.913 98.5965L132.023 98.5964C134.529 98.5964 136.791 97.5848 138.421 95.9394C140.062 94.294 141.071 92.026 141.071 89.5135C141.071 87.001 140.062 84.733 138.421 83.0876C136.791 81.4423 134.518 80.4306 132.023 80.4306L85.8025 80.4306L68.4035 97.8738M91.9903 134.335L96.3152 129.999L137.401 129.999L137.368 130.044L154.013 113.357L170.657 96.6582C172.476 94.8349 173.385 92.4447 173.385 90.0544C173.385 87.6642 172.476 85.274 170.657 83.4507C168.839 81.6275 166.455 80.7158 164.07 80.7158C161.686 80.7158 159.302 81.6275 157.472 83.4507L140.827 100.138M59.3618 167.526L85.3993 141.422L52.6528 108.592L26.6152 134.696M52.6549 108.591L64.8873 96.3279L97.6325 129.156L85.4001 141.42L52.6549 108.591Z" stroke="#0E1D4B" stroke-width="4" stroke-linejoin="round"/>
</svg>
