<svg width="62" height="62" viewBox="0 0 62 62" fill="none" xmlns="http://www.w3.org/2000/svg">
<path d="M9.6875 52.3125H52.3125" stroke="#0098ED" stroke-width="4" stroke-linecap="round" stroke-linejoin="round"/>
<path d="M23.25 52.3125V31.9688H20.3438C16.4898 31.9688 12.7937 30.4378 10.0686 27.7126C7.34347 24.9875 5.8125 21.2914 5.8125 17.4375V17.4375C5.81887 16.1548 6.33123 14.9265 7.23823 14.0195C8.14524 13.1125 9.37357 12.6001 10.6562 12.5938C11.9389 12.6001 13.1673 13.1125 14.0743 14.0195C14.9813 14.9265 15.4936 16.1548 15.5 17.4375C15.5064 18.7202 16.0187 19.9485 16.9257 20.8555C17.8327 21.7625 19.0611 22.2749 20.3438 22.2812H23.25V13.5625C23.25 11.5071 24.0665 9.53583 25.5199 8.08242C26.9733 6.62902 28.9446 5.8125 31 5.8125V5.8125C33.0554 5.8125 35.0267 6.62902 36.4801 8.08242C37.9335 9.53583 38.75 11.5071 38.75 13.5625V31.9688H41.6562C42.9389 31.9624 44.1673 31.45 45.0743 30.543C45.9813 29.636 46.4936 28.4077 46.5 27.125V27.125C46.5064 25.8423 47.0187 24.614 47.9257 23.707C48.8327 22.8 50.0611 22.2876 51.3438 22.2812C52.6264 22.2876 53.8548 22.8 54.7618 23.707C55.6688 24.614 56.1811 25.8423 56.1875 27.125V27.125C56.1875 30.9789 54.6565 34.675 51.9314 37.4001C49.2063 40.1253 45.5102 41.6562 41.6562 41.6562H38.75V52.3125" stroke="#0098ED" stroke-width="4" stroke-linecap="round" stroke-linejoin="round"/>
</svg>
