<svg width="1920" height="8691" viewBox="0 0 1920 8691" fill="none" xmlns="http://www.w3.org/2000/svg">
<path d="M3338.25 8679.5C3211.05 8643.9 2755.02 8640 2542.9 8642.5C1804.4 8642.5 2777.5 8699 2482.5 8573C2154.5 8432.91 2511.34 8701.09 2147 8591C83.5 7967.5 368.733 7515.57 536.765 7396.64C733.937 7257.09 1077.21 7179.1 1166.87 6907.14C1216 6758.08 1480.5 6711 1274 6479C1124.91 6311.5 299.3 6163.59 436.5 6108.5C525.34 6076.61 465.11 6006.19 436.5 5954C419.7 5923.35 436.5 5990.5 564.5 5926.5C-209 6211.5 -144.5 5836.19 80 5777C349.31 5706 -354.12 5728.07 -273 5673.5C-197.46 5627.16 -151.641 5774.72 -126.351 5723.11C-103.031 5655.13 -117.3 5609.22 -184 5556C-269.68 5487.63 358.661 6013.21 796.431 5085.5C924.5 4746.5 1276.41 4778.34 1377.1 4709.81C1419.01 4681.28 1463.17 4641.26 1482.82 4591.48C1494.69 4561.4 1501.49 4533.87 1485.69 4490.93C1469.9 4448 1412.9 4426.32 1350.4 4411C1273.62 4392.18 1233.35 4378.16 1159.92 4347.48C1025.77 4291.45 886.07 4201.76 796.431 4073.05C778.69 4047.57 762.91 4020.57 749.522 3992C729.357 3948.96 714.619 3902.36 706.781 3852.06C681.104 3687.26 707.097 3512.37 773.813 3362.55C850.376 3190.62 952.909 3053.01 981.609 2911.52C993.089 2854.93 1007.75 2706 981.609 2669.12C955.469 2632.24 928.793 2644.9 916.838 2658.04C904.219 2671.91 901.345 2698.17 905.072 2716.67C925.822 2819.67 1154.72 2783.04 1204.83 2769.53C1416.42 2712.47 1550.32 2501.82 1590.93 2277.8C1622.67 2102.74 1637.74 1921.68 1603 1745.41C1586.25 1660.44 1563.65 1582.5 1542.67 1499.18C1416.45 1126.42 1498.24 1077.88 1553.4 1099.34C1594.26 1121.96 1599.75 1170.99 1558.51 1216.48C1496.95 1284.39 1320.58 1264.7 1247.06 1238.9C1124.46 1189.72 1008.9 1083 940.399 956.5C852.675 794.5 573.11 825.964 318.681 708.184C64.2511 590.405 87.721 317.537 -84 264.5C-255.721 211.464 -335.121 120.764 -380.721 11.964" stroke="#002CC9" stroke-width="22" stroke-linecap="round"/>
</svg>
