<svg width="204" height="38" viewBox="0 0 204 38" fill="none" xmlns="http://www.w3.org/2000/svg">
<g clip-path="url(#clip0_32_2056)">
<path d="M25.3883 2.23742C24.6504 0.644995 22.3135 0.165971 20.1579 1.16286C18.0023 2.15974 16.8565 4.25709 17.5945 5.84304C18.3324 7.429 20.6758 7.91449 22.8249 6.91114C24.974 5.91425 26.1263 3.8169 25.3883 2.23095" fill="#E7290F"/>
<path d="M19.5298 33.5746C20.2742 33.3092 17.659 34.5585 16.9923 34.9146C14.9208 36.0021 12.4351 36.5911 10.519 36.999C6.68681 37.8146 3.37896 37.2385 1.51466 35.0634C-2.22043 30.7134 1.22336 21.6443 9.19845 14.8021C13.186 11.3777 17.549 9.16383 21.3876 8.34819C23.3037 7.94038 25.0904 7.88212 26.631 8.19283C26.631 8.19283 30.9422 8.91137 28.8384 14.2C28.8384 14.2 23.362 26.1109 7.9491 32.6813C7.9491 32.6813 17.8338 25.7484 22.5981 17.1001C22.5981 17.1001 26.385 10.8663 20.5914 10.9763C20.5914 10.9763 18.1316 10.9569 14.3188 13.1773C10.9592 15.0157 6.72565 18.3818 4.41469 24.1948C4.41469 24.1948 0.433617 33.6846 11.4576 34.688C11.4576 34.688 15.4452 35.0505 19.5298 33.5875" fill="#004998"/>
<path d="M28.2688 16.9577C27.6539 17.8769 26.4434 19.6312 25.2329 21.1589C26.644 21.2754 28.0293 21.6509 27.0389 24.402C27.0389 24.402 25.4076 28.6291 20.6433 32.9014C20.6433 32.9014 28.6896 28.2212 31.5767 22.0651C31.5767 22.0651 34.9428 15.566 28.2688 16.9577Z" fill="#10A035"/>
</g>
<path d="M54.5791 17.053C54.5791 18.879 53.2371 20.573 50.2451 20.573H49.0351C46.0431 20.573 44.7011 18.923 44.7011 17.075C44.7011 15.205 46.0431 13.577 49.0351 13.577H50.2451C53.2371 13.577 54.5791 15.205 54.5791 17.053ZM59.7491 22.685V28.361H56.9111V24.159H45.8451V21.871H58.9571C59.5071 21.871 59.7491 22.135 59.7491 22.685ZM56.9111 9.11102H59.7491V13.665H62.3011V16.107H59.7491V20.771H56.9111V9.11102ZM55.4591 12.653H43.6891V10.343H48.2211V8.51702H51.0371V10.343H55.4591V12.653ZM49.0351 18.329H50.2451C51.2571 18.329 51.7411 17.779 51.7411 17.075C51.7411 16.371 51.2571 15.843 50.2451 15.843H49.0351C48.0231 15.843 47.5391 16.371 47.5391 17.075C47.5391 17.779 48.0231 18.329 49.0351 18.329ZM80.5645 22.531V28.361H77.7485V24.137H65.7805V21.695H79.7945C80.3445 21.695 80.5645 21.981 80.5645 22.531ZM71.9845 15.975H67.3205V17.229C67.3205 17.361 67.3205 17.471 67.4305 17.603L67.6725 17.823C67.7825 17.911 67.8485 17.955 67.9805 17.955H74.2065V20.353H67.2325C66.4405 20.353 66.0665 20.177 65.5825 19.671L65.0765 19.143C64.6145 18.659 64.5045 18.351 64.5045 17.493V14.501C64.5045 13.995 64.7685 13.731 65.3185 13.731H70.6645C70.9065 13.731 70.9945 13.577 70.9945 13.357V11.795H64.5485V9.41902H72.9965C73.5465 9.41902 73.7885 9.72702 73.7885 10.277V14.127C73.7885 15.227 73.0845 15.975 71.9845 15.975ZM77.7925 9.11102H80.5645V20.595H77.7925V18.153H75.0205V15.755H77.7925V13.819H75.0205V11.421H77.7925V9.11102ZM95.7479 28.295H90.1599C87.1459 28.295 85.6499 26.821 85.6499 24.797C85.6499 22.751 87.1679 21.343 90.1599 21.343H95.7479C98.7399 21.343 100.258 22.751 100.258 24.797C100.258 26.821 98.7619 28.295 95.7479 28.295ZM94.6259 16.767C94.6259 18.615 93.2399 20.243 90.2919 20.243H89.0819C86.1339 20.243 84.7479 18.659 84.7479 16.789C84.7479 14.919 86.1339 13.335 89.0819 13.335H90.2919C93.2399 13.335 94.6259 14.919 94.6259 16.767ZM97.0019 9.11102H99.7959V11.861H102.348V14.215H99.7959V16.041H102.348V18.373H99.7959V20.639H97.0019V9.11102ZM95.5059 12.543H83.7579V10.255H88.2679V8.51702H91.0839V10.255H95.5059V12.543ZM90.0059 25.875H95.8799C96.9359 25.875 97.4859 25.479 97.4859 24.797C97.4859 24.115 96.9359 23.741 95.8799 23.741H90.0059C88.9499 23.741 88.4219 24.115 88.4219 24.797C88.4219 25.479 88.9499 25.875 90.0059 25.875ZM89.0819 17.933H90.2919C91.3039 17.933 91.7879 17.449 91.7879 16.789C91.7879 16.129 91.3039 15.645 90.2919 15.645H89.0819C88.0699 15.645 87.5859 16.129 87.5859 16.789C87.5859 17.449 88.0699 17.933 89.0819 17.933ZM116.981 9.11102H119.819V13.049H122.371V15.491H119.819V19.715H116.981V9.11102ZM110.095 20.419H115.045C118.609 20.419 120.237 22.003 120.237 24.357C120.237 26.689 118.609 28.339 115.045 28.339H110.095C106.509 28.339 104.903 26.689 104.903 24.357C104.903 22.003 106.531 20.419 110.095 20.419ZM109.875 25.919H115.287C116.871 25.919 117.465 25.281 117.465 24.357C117.465 23.433 116.871 22.817 115.287 22.817H109.875C108.291 22.817 107.697 23.433 107.697 24.357C107.697 25.281 108.291 25.919 109.875 25.919ZM111.503 13.401C112.735 14.787 113.923 15.931 115.375 17.185L113.659 19.077C112.141 17.801 111.063 16.657 109.875 15.293C109.677 15.095 109.545 14.963 109.479 14.743C109.457 14.963 109.303 15.095 109.127 15.293C107.961 16.745 106.773 17.867 105.277 19.253L103.473 17.361C105.013 15.975 106.267 14.743 107.433 13.379C107.895 12.829 108.027 12.521 108.027 11.773V9.24302H110.909V11.773C110.909 12.521 111.019 12.895 111.503 13.401ZM135.399 12.103H131.219V16.195C131.219 17.119 131.417 17.999 131.835 18.681C133.067 20.617 134.453 22.553 135.971 24.511L134.035 26.249C132.627 24.445 131.219 22.597 130.009 20.727C129.943 20.595 129.833 20.375 129.811 20.199C129.767 20.419 129.679 20.595 129.591 20.727C128.381 22.663 127.061 24.555 125.609 26.403L123.563 24.709C125.037 22.795 126.445 20.793 127.787 18.637C128.161 17.999 128.381 17.097 128.381 16.173V12.103H124.069V9.63902H135.399V12.103ZM137.819 9.11102H140.635V27.965H137.819V9.11102ZM149.262 25.853H161.076V28.229H148.404C147.502 28.229 147.172 28.053 146.732 27.569L146.16 26.975C145.676 26.447 145.544 26.161 145.544 25.171V22.025H148.36V24.863C148.36 25.061 148.404 25.215 148.492 25.347L148.844 25.721C148.954 25.809 149.042 25.853 149.262 25.853ZM150.032 9.06702C153.464 9.06702 155.158 10.783 155.158 12.631V12.895C155.158 14.787 153.464 16.481 150.032 16.481C146.534 16.481 144.84 14.787 144.84 12.895V12.631C144.84 10.783 146.534 9.06702 150.032 9.06702ZM152.452 12.829V12.697C152.452 11.993 151.682 11.289 150.032 11.289C148.338 11.289 147.568 11.993 147.568 12.697V12.829C147.568 13.533 148.338 14.259 150.032 14.259C151.682 14.259 152.452 13.533 152.452 12.829ZM151.99 23.191H149.24V19.759H143.982V17.471H156.39V19.759H151.99V23.191ZM153.75 22.861V20.793H157.886V9.11102H160.658V24.159H157.886V22.861H153.75ZM169.814 25.787H181.672V28.229H168.956C168.054 28.229 167.724 28.053 167.284 27.569L166.646 26.909C166.162 26.381 166.03 26.095 166.03 25.105V21.409H168.846V24.731C168.846 24.951 168.89 25.105 169.022 25.215L169.396 25.655C169.506 25.743 169.594 25.787 169.814 25.787ZM170.606 14.897C171.464 16.041 172.586 17.361 173.664 18.439L171.926 20.199C170.87 19.099 169.748 17.735 168.912 16.547C168.802 16.393 168.736 16.283 168.692 16.107C168.648 16.283 168.582 16.393 168.494 16.547C167.658 17.713 166.492 19.209 165.392 20.397L163.5 18.769C164.556 17.647 165.832 16.173 166.734 14.875C167.174 14.259 167.306 13.863 167.306 13.027V9.70502H170.056V13.027C170.056 13.863 170.144 14.259 170.606 14.897ZM178.482 9.11102H181.188V23.081H178.482V9.11102ZM174.456 9.24302H177.14V22.971H174.456V14.655H171.882V12.323H174.456V9.24302ZM195.359 26.469H188.319C187.439 26.469 187.065 26.359 186.493 25.721L185.459 24.577C184.931 23.983 184.821 23.719 184.821 22.685V10.431C184.821 9.88102 185.063 9.61702 185.591 9.61702H194.501V12.037H187.681V16.481H193.643V18.879H187.681V22.465C187.681 22.685 187.747 22.839 187.923 23.015L188.605 23.807C188.781 23.961 188.913 24.027 189.089 24.027H195.359V26.469ZM197.889 9.11102H200.705V27.965H197.889V18.637H194.853V16.217H197.889V9.11102Z" fill="white"/>
<defs>
<clipPath id="clip0_32_2056">
<rect width="32.4247" height="36.71" fill="white" transform="translate(0 0.64502)"/>
</clipPath>
</defs>
</svg>
