<svg width="27" height="25" viewBox="0 0 27 25" fill="none" xmlns="http://www.w3.org/2000/svg">
<path d="M23.9326 10.0839C23.9326 10.0839 23.3374 10.024 23.1642 10.0315C22.2678 10.0689 22.5013 10.0315 21.522 10.0315C19.4504 10.0315 17.4014 9.95661 15.375 9.79941V2.98698C15.375 1.34003 14.0266 0 12.3693 0C10.712 0 9.36361 1.34003 9.36361 2.98698V9.11816C7.48034 8.83369 5.61214 8.48184 3.77407 8.06261C3.60081 8.02518 3.00569 7.96529 3.00569 7.96529C1.34842 7.96529 0 9.30532 0 10.9523C0 12.3672 0.994365 13.55 2.32019 13.8644C2.46331 13.8943 3.00569 14.0141 3.00569 14.0141C4.38425 14.3136 5.77786 14.5831 7.17902 14.8151L3.8946 20.4672C3.62341 20.9164 3.46521 21.4479 3.46521 22.0094C3.46521 23.6563 4.81363 24.9963 6.47091 24.9963C7.60087 24.9963 8.5877 24.375 9.09995 23.4542L12.3693 17.8246L15.6311 23.4467C15.8872 23.9108 16.2714 24.3151 16.7686 24.5996C18.2074 25.4231 20.0455 24.9365 20.8741 23.5066C21.4391 22.5259 21.3939 21.3655 20.844 20.4672L18.215 15.9381C19.3148 15.983 20.4146 15.998 21.522 15.998C22.5314 15.998 22.2452 16.0354 23.2471 15.998C23.3375 15.9905 23.4203 15.9905 23.458 15.983C24.8215 15.9381 26.0268 14.9649 26.3055 13.5724C26.6294 11.9554 25.5672 10.3833 23.9401 10.0614L23.9326 10.0839Z" fill="#0098ED"/>
</svg>
