<svg width="240" height="131" viewBox="0 0 240 131" fill="none" xmlns="http://www.w3.org/2000/svg">
<g clip-path="url(#clip0_32_3403)">
<mask id="mask0_32_3403" style="mask-type:luminance" maskUnits="userSpaceOnUse" x="0" y="0" width="240" height="131">
<path d="M239.695 0H0V130.29H239.695V0Z" fill="white"/>
</mask>
<g mask="url(#mask0_32_3403)">
<path d="M64.8772 38.1345C64.8772 50.8405 54.5728 61.1287 41.8829 61.1287C29.1931 61.1287 18.8887 50.8243 18.8887 38.1345C18.8887 25.4446 29.1931 15.124 41.8829 15.124C54.5728 15.124 64.8772 25.4284 64.8772 38.1345Z" fill="#040000"/>
<path d="M56.3417 38.0533C56.3417 46.0372 49.867 52.5119 41.8831 52.5119C33.8992 52.5119 27.4082 46.0372 27.4082 38.0533C27.4082 30.0694 33.8829 23.5947 41.8831 23.5947C49.8832 23.5947 56.3417 30.0694 56.3417 38.0533Z" fill="#F7AF3D"/>
<path d="M142.688 85.7619C142.688 98.468 132.383 108.756 119.693 108.756C107.004 108.756 96.6992 98.4518 96.6992 85.7619C96.6992 73.0721 107.004 62.7677 119.693 62.7677C132.383 62.7677 142.688 73.0721 142.688 85.7619Z" fill="#040000"/>
<path d="M134.152 85.6646C134.152 93.6485 127.677 100.123 119.693 100.123C111.709 100.123 105.234 93.6485 105.234 85.6646C105.234 77.6807 111.709 71.2059 119.693 71.2059C127.677 71.2059 134.152 77.6807 134.152 85.6646Z" fill="#F7AF3D"/>
<path d="M68.9502 63.6602H14.8804C12.3442 63.6602 10.2881 65.7163 10.2881 68.2526V70.2161C10.2881 72.7524 12.3442 74.8084 14.8804 74.8084H68.9502C71.4865 74.8084 73.5426 72.7524 73.5426 70.2161V68.2526C73.5426 65.7163 71.4865 63.6602 68.9502 63.6602Z" fill="#040000"/>
<path d="M43.246 55.2057H40.2115C37.6752 55.2057 35.6191 57.2618 35.6191 59.7981V65.7048C35.6191 68.2411 37.6752 70.2972 40.2115 70.2972H43.246C45.7823 70.2972 47.8384 68.2411 47.8384 65.7048V59.7981C47.8384 57.2618 45.7823 55.2057 43.246 55.2057Z" fill="#040000"/>
<path d="M64.0984 94.7357H23.3189C20.7826 94.7357 18.7266 96.7918 18.7266 99.3281V101.47C18.7266 104.006 20.7826 106.062 23.3189 106.062H64.0984C66.6347 106.062 68.6908 104.006 68.6908 101.47V99.3281C68.6908 96.7918 66.6347 94.7357 64.0984 94.7357Z" fill="#040000"/>
<path d="M24.9094 78.7517H23.4976C20.9613 78.7517 18.9053 80.8078 18.9053 83.344V101.47C18.9053 104.006 20.9613 106.062 23.4976 106.062H24.9094C27.4457 106.062 29.5018 104.006 29.5018 101.47V83.344C29.5018 80.8078 27.4457 78.7517 24.9094 78.7517Z" fill="#040000"/>
<path d="M126.558 52.1549C126.558 55.2382 124.059 57.721 120.992 57.721C117.925 57.721 115.426 55.2219 115.426 52.1549V22.3289C115.426 19.2457 117.925 16.7629 120.992 16.7629C124.059 16.7629 126.558 19.262 126.558 22.3289V52.1549Z" fill="#040000"/>
<path d="M146.68 53.7615C146.68 56.8447 144.181 59.3275 141.114 59.3275C138.047 59.3275 135.548 56.8284 135.548 53.7615V20.1707C135.548 17.0875 138.047 14.6047 141.114 14.6047C144.181 14.6047 146.68 17.1037 146.68 20.1707V53.7777V53.7615Z" fill="#040000"/>
<path d="M208.133 53.7615C208.133 56.8447 205.634 59.3275 202.567 59.3275C199.5 59.3275 197.001 56.8284 197.001 53.7615V20.1707C197.001 17.0875 199.5 14.6047 202.567 14.6047C205.634 14.6047 208.133 17.1037 208.133 20.1707V53.7777V53.7615Z" fill="#040000"/>
<path d="M101.535 56.8284C102.784 59.6358 106.078 60.9015 108.886 59.6358C111.693 58.3863 112.959 55.0921 111.693 52.2848L98.6787 19.3593C97.4292 16.552 94.135 15.2862 91.3277 16.5357C88.5203 17.7853 87.2546 21.0794 88.5041 23.8868L101.519 56.8122L101.535 56.8284Z" fill="#040000"/>
<path d="M142.542 37.7774C142.542 40.6497 140.205 42.9865 137.333 42.9865H126.736C123.864 42.9865 121.527 40.6497 121.527 37.7774C121.527 34.9052 123.864 32.5684 126.736 32.5684H137.333C140.205 32.5684 142.542 34.9052 142.542 37.7774Z" fill="#040000"/>
<path d="M221.439 36.6902C221.439 39.5625 219.103 41.8992 216.23 41.8992H205.634C202.762 41.8992 200.425 39.5625 200.425 36.6902C200.425 33.818 202.762 31.4812 205.634 31.4812H216.23C219.103 31.4812 221.439 33.818 221.439 36.6902Z" fill="#040000"/>
<path d="M208.506 69.4858C208.506 72.5041 206.056 74.9707 203.021 74.9707H168.522C165.487 74.9707 163.037 72.5204 163.037 69.4858C163.037 66.4513 165.487 64.001 168.522 64.001H203.021C206.056 64.001 208.506 66.4513 208.506 69.4858Z" fill="#040000"/>
<path d="M208.507 97.4295C208.507 100.902 205.683 103.726 202.21 103.726C198.738 103.726 195.914 100.902 195.914 97.4295V70.1187C195.914 66.646 198.738 63.8225 202.21 63.8225C205.683 63.8225 208.507 66.646 208.507 70.1187V97.4295Z" fill="#0070BA"/>
<path d="M192.863 21.0632C192.863 24.2438 190.282 26.8077 187.118 26.8077H160.878C157.698 26.8077 155.134 24.2275 155.134 21.0632C155.134 17.8989 157.714 15.3187 160.878 15.3187H187.118C190.299 15.3187 192.863 17.8989 192.863 21.0632Z" fill="#040000"/>
<path d="M85.762 57.0069C84.5125 59.8143 81.2184 61.08 78.411 59.8143C75.6037 58.5648 74.3379 55.2706 75.6037 52.4633L88.6181 19.5378C89.8676 16.7305 93.1618 15.4647 95.9691 16.7143C98.7764 17.9638 100.042 21.2579 98.7927 24.0653L85.7783 56.9907L85.762 57.0069Z" fill="#E71E1F"/>
<path d="M179.394 56.0982C178.144 58.9055 174.85 60.1713 172.043 58.9055C169.236 57.656 167.97 54.3619 169.236 51.5545L182.25 18.6291C183.499 15.8217 186.794 14.556 189.617 15.8217C192.425 17.0713 193.69 20.3654 192.425 23.1728L179.41 56.0982H179.394Z" fill="#009345"/>
<path d="M96.8124 22.1018C96.8124 23.9355 95.3195 25.4284 93.4858 25.4284C91.6521 25.4284 90.1592 23.9355 90.1592 22.1018C90.1592 20.2681 91.6521 18.7751 93.4858 18.7751C95.3195 18.7751 96.8124 20.2681 96.8124 22.1018Z" fill="#A91F24"/>
<path d="M190.072 21.1606C190.072 22.9943 188.579 24.4872 186.746 24.4872C184.912 24.4872 183.419 22.9943 183.419 21.1606C183.419 19.3269 184.912 17.8339 186.746 17.8339C188.579 17.8339 190.072 19.3269 190.072 21.1606Z" fill="#006836"/>
<path d="M205.536 70.4757C205.536 72.3094 204.043 73.8023 202.209 73.8023C200.376 73.8023 198.883 72.3094 198.883 70.4757C198.883 68.642 200.376 67.1491 202.209 67.1491C204.043 67.1491 205.536 68.642 205.536 70.4757Z" fill="#21296D"/>
</g>
</g>
<defs>
<clipPath id="clip0_32_3403">
<rect width="239.695" height="130.29" fill="white"/>
</clipPath>
</defs>
</svg>
