<svg width="407" height="77" viewBox="0 0 407 77" fill="none" xmlns="http://www.w3.org/2000/svg">
<path d="M177.531 31.0583C177.531 31.0583 175.702 30.8739 175.17 30.8969C172.416 31.0122 173.133 30.8969 170.124 30.8969C163.76 30.8969 157.464 30.6664 151.238 30.1822V9.19991C151.238 4.12728 147.095 0 142.004 0C136.912 0 132.769 4.12728 132.769 9.19991V28.0839C126.983 27.2078 121.243 26.1241 115.595 24.8328C115.063 24.7176 113.235 24.5331 113.235 24.5331C108.143 24.5331 104 28.6604 104 33.733C104 38.0909 107.055 41.7339 111.129 42.7023C111.568 42.7946 113.235 43.1635 113.235 43.1635C117.47 44.0858 121.752 44.9159 126.057 45.6306L115.966 63.039C115.133 64.4224 114.647 66.0595 114.647 67.7888C114.647 72.8615 118.789 76.9887 123.881 76.9887C127.353 76.9887 130.385 75.075 131.959 72.2389L142.004 54.8997L152.025 72.2158C152.812 73.6454 153.993 74.8905 155.52 75.7667C159.941 78.303 165.588 76.8043 168.134 72.4003C169.87 69.3798 169.731 65.8059 168.041 63.039L159.964 49.0893C163.343 49.2276 166.722 49.2737 170.124 49.2737C173.226 49.2737 172.346 49.389 175.425 49.2737C175.702 49.2507 175.957 49.2507 176.073 49.2276C180.262 49.0893 183.965 46.0918 184.821 41.8031C185.817 36.8227 182.553 31.9806 177.554 30.9892L177.531 31.0583Z" fill="#0098ED"/>
<path opacity="0.93" d="M227.109 60.884L268.202 9.6106C269.526 7.95792 271.51 7 273.606 7L290.113 7.03509C294.229 7.04562 296.492 11.9072 293.891 15.1511L252.965 66.2157C251.555 67.9772 249.438 69 247.204 69L230.899 69C226.778 69 224.505 64.1332 227.109 60.884Z" fill="#0098ED"/>
<circle cx="32.5" cy="38.5" r="32.5" fill="#0098ED"/>
<rect x="336" y="3" width="71" height="71" rx="20" fill="#0098ED"/>
</svg>
