<svg width="159" height="104" viewBox="0 0 159 104" fill="none" xmlns="http://www.w3.org/2000/svg">
<g style="mix-blend-mode:multiply">
<path d="M158.567 80.8987C158.554 80.6518 158.532 80.1389 158.5 79.778C158.425 78.9232 158.437 78.0748 158.425 77.2231C158.415 77.1472 158.403 77.068 158.393 76.992C158.298 76.2512 158.276 75.4946 158.207 74.7474C158.08 74.0541 157.492 72.1419 157.492 72.1419C157.432 71.705 157.176 71.2998 156.768 70.999C156.617 70.8882 156.459 70.7869 156.298 70.6888C154.667 69.853 153.045 69.0077 151.373 68.2606C150.118 67.7002 148.889 67.2 147.561 66.8233C147.157 66.7093 146.752 66.6112 146.351 66.513C145.368 66.4497 144.395 66.2946 143.421 66.1236C141.923 66.0413 140.425 65.9748 138.927 65.9463C137.365 65.9147 135.801 65.9115 134.239 65.9273C132.182 66.0476 130.121 66.1458 128.06 66.2154C126.644 66.3611 125.235 66.5257 123.809 66.5605C123.774 66.5605 123.746 66.5542 123.711 66.5542C123.683 66.5542 123.651 66.5605 123.623 66.5637C122.997 66.6207 122.355 66.6618 121.736 66.6998C121.208 66.7315 120.683 66.7663 120.159 66.8106C119.672 66.8518 119.176 66.9277 118.695 67.0006C117.715 67.1493 116.704 67.3076 115.772 67.1525C113.939 66.8518 112.124 67.0132 110.37 67.1683C109.621 67.2348 108.844 67.3045 108.082 67.3361C107.301 67.3678 106.508 67.4343 105.743 67.5008C104.984 67.5641 104.197 67.6306 103.426 67.6622C102.225 67.7129 101.002 67.7414 99.8231 67.7699C98.4292 67.8047 96.988 67.8395 95.572 67.906C94.6807 67.9471 93.7799 68.0485 92.9107 68.1466C92.307 68.2131 91.6812 68.2859 91.0681 68.3334C90.5908 68.3714 90.1041 68.3872 89.63 68.403C89.0042 68.422 88.3562 68.4442 87.7241 68.517C87.1741 68.5803 86.621 68.6911 86.0869 68.7956C85.4453 68.9222 84.7815 69.0552 84.1273 69.1027C82.7556 69.2072 81.7947 69.701 81.1025 70.6571C80.619 71.3283 80.5494 72.601 80.7675 73.3988C80.8971 73.8831 81.1215 74.2061 81.4154 74.3359L81.6304 74.4277C82.3794 74.7474 82.8377 74.9785 82.784 75.6909C82.7429 76.2449 82.5722 76.8052 82.4047 77.3466C82.3478 77.5366 82.2878 77.7265 82.2372 77.9133C82.1645 78.1697 82.0792 78.4262 81.9907 78.6794C81.839 79.129 81.6809 79.5912 81.6051 80.0661C81.5229 80.5979 81.4976 81.1393 81.4723 81.668C81.4534 82.0922 81.4312 82.5291 81.3838 82.9502L81.3491 83.2351C81.1974 84.511 81.0425 85.8311 80.7675 87.0975C80.4451 88.5791 79.9963 90.0607 79.557 91.441C79.2093 92.5396 78.8142 93.6445 78.4318 94.7145C78.2548 95.2084 78.081 95.6991 77.9071 96.193C77.8945 96.231 77.8787 96.269 77.8629 96.307C77.8123 96.4336 77.7617 96.5634 77.7522 96.709C77.7017 97.5195 78.2453 99.9287 79.4495 100.575C80.6537 101.22 83.6532 102.227 84.3738 102.347C85.0944 102.468 87.3259 102.541 88.3941 102.534C89.1559 102.534 89.9176 102.56 90.6761 102.604C91.9309 102.55 93.1857 102.518 94.4247 102.623C94.7945 102.623 95.1643 102.639 95.5341 102.67C97.402 102.829 99.2225 103.259 101.068 103.547C101.419 103.573 101.773 103.598 102.124 103.617C105.553 103.823 108.986 103.934 112.415 104C112.453 103.997 112.485 103.987 112.526 103.987C114.852 103.972 117.188 103.924 119.511 103.816C120.649 103.763 121.78 103.718 122.908 103.763C125.036 103.516 127.163 103.614 129.29 103.424C131.076 103.266 132.82 102.939 134.6 102.775C134.726 102.712 134.878 102.674 135.048 102.674C139.151 102.642 143.219 102.021 147.315 101.923C148.017 101.831 148.721 101.743 149.423 101.667C150.811 101.512 152.397 101.578 153.741 101.224C154.717 100.964 155.688 100.128 156.342 99.2481L156.323 99.1404C156.364 99.1214 156.411 99.1056 156.456 99.0898C156.566 98.9315 156.667 98.7732 156.753 98.618C157.056 98.0767 157.375 97.5068 157.679 96.9243C157.761 96.5159 157.846 96.1107 157.941 95.7055C158.535 93.1759 158.63 90.7034 158.595 88.1105C158.564 85.6823 158.57 81.1361 158.561 80.8924L158.567 80.8987ZM144.926 90.5229C144.951 90.9567 144.979 91.3872 145.005 91.8209C145.017 92.0489 145.128 92.8973 145.011 92.967C144.894 93.0366 141.392 92.8942 141.392 92.8942C140.832 92.8942 140.26 92.8783 139.707 92.8625C138.43 92.8277 137.112 92.7897 135.832 92.9448C133.81 93.1886 131.793 93.0176 129.492 92.4035C129.274 92.3465 129.046 92.3338 128.828 92.3243C128.74 92.3211 128.654 92.3148 128.569 92.3085C127.972 92.2578 127.378 92.2103 126.78 92.1629C125.491 92.0615 124.157 91.9571 122.848 91.8209C121.644 91.6975 120.424 91.555 119.242 91.4157C119.198 91.4094 119.157 91.4062 119.112 91.3999C117.69 91.3556 116.268 91.3239 114.846 91.2796C114.64 91.3049 111.176 91.1403 109.659 91.0263C104.747 90.6559 99.8547 90.0386 94.9209 90.0101C94.8292 90.0101 91.362 89.9214 90.9764 89.6207C90.5908 89.3199 90.0883 88.177 89.8259 87.1861C89.532 86.0812 89.4024 84.9067 89.276 83.7701L89.2665 83.6783C89.197 83.0578 89.1717 82.4215 89.1464 81.8041C89.1306 81.4242 89.1148 81.0443 89.0927 80.6644C89.0231 79.6197 88.9473 78.5718 88.8682 77.4764L88.7766 76.2037C89.1401 76.2955 96.0366 75.6497 98.2206 75.7225C98.8591 75.7415 99.4912 75.7922 100.123 75.8555C101.236 75.8555 102.352 75.8776 103.464 75.9188L103.493 75.9093C103.493 75.9093 103.521 75.8998 103.534 75.8903C103.546 75.903 103.559 75.9093 103.572 75.9188C108.044 76.0898 112.513 76.5235 116.979 76.9319C121.515 77.3466 126.034 77.4036 130.579 77.6094C132.643 77.7012 134.906 77.5239 137.033 77.831C137.255 77.831 137.479 77.831 137.7 77.8405C138.108 77.8595 138.503 77.926 138.892 78.0114C141.414 77.869 144.736 77.8183 145.507 80.1547C145.931 81.4369 145.27 82.8204 145.014 84.0582C144.872 84.7547 144.78 85.4576 144.711 86.1667C144.755 87.623 144.84 89.092 144.929 90.5166L144.926 90.5229Z" fill="#3A3A3A"/>
<path d="M56.7008 28.6078C56.6914 28.402 56.685 28.1994 56.6756 27.9936C56.6724 27.9018 56.6661 27.8069 56.6629 27.715C56.6598 27.6296 56.6534 27.5473 56.6503 27.4618C56.644 27.3636 56.6408 27.2655 56.6345 27.1642C56.6313 27.085 56.625 27.0091 56.6218 26.9299C56.6155 26.8286 56.6092 26.7273 56.5997 26.626C56.5934 26.55 56.5871 26.474 56.5807 26.4012C56.5713 26.2967 56.5618 26.1891 56.5491 26.0846C56.5428 26.015 56.5365 25.9453 56.527 25.8757C56.5144 25.7585 56.4986 25.6446 56.4828 25.5274C56.4764 25.4705 56.467 25.4103 56.4606 25.3533C56.4353 25.1792 56.4069 25.0082 56.3753 24.8341C56.3563 24.736 56.3342 24.641 56.3152 24.5429C56.0814 23.3588 55.7811 22.1906 55.5093 21.0161C55.4081 20.5824 55.3102 20.1486 55.2248 19.7149C55.1616 19.4047 55.1079 19.0881 55.0573 18.7746C54.9593 18.515 54.874 18.2491 54.7887 17.9832C54.4852 17.0144 54.2577 16.0077 54.0364 15.0073C53.9637 14.7603 53.8721 14.5166 53.7488 14.2949C53.5402 13.9214 53.2747 13.5731 53.0155 13.2375C52.6552 12.7658 52.3107 12.3194 52.1147 11.8097C51.7418 10.8473 51.1065 10.1033 50.4902 9.38152C50.2247 9.07127 49.9529 8.75151 49.7063 8.42226C49.5609 8.22915 49.4219 8.12784 49.2006 7.97904C48.9794 7.83025 48.8308 7.6023 48.6444 7.42185C48.4579 7.2414 47.5508 6.32646 46.6026 5.69645C45.9546 5.26273 45.155 4.43011 44.8958 4.27181C44.6367 4.11352 44.1373 3.8096 44.0741 3.74311C44.0108 3.67663 43.9919 3.62598 43.4767 3.21441C42.9615 2.80285 41.6846 2.36913 40.5815 1.96706C39.5006 1.5745 38.2964 1.20409 36.9057 0.833683C36.6939 0.776697 36.4822 0.719712 36.2673 0.662726C35.2306 0.377798 34.1559 0.0865386 33.0782 0.0105578C32.3828 -0.0369302 31.5895 0.0897044 31.1881 0.115031C30.7867 0.140358 30.2462 0.168851 29.3644 0.276491C28.4826 0.38413 26.4282 0.814688 25.9351 1.01414C25.442 1.21359 24.9142 1.41304 24.339 1.70746C23.7637 2.00189 22.1897 2.79652 21.5671 3.15743C20.837 3.57849 20.11 4.00905 19.3862 4.4396C18.9817 4.73086 18.0145 5.3957 17.5151 5.90857C17.0158 6.42144 16.175 7.17491 15.6567 7.81758C15.2679 8.36844 14.4683 9.40685 14.1649 9.8469C13.8614 10.287 12.8342 11.9079 12.3538 12.5569C11.5731 13.608 10.7672 14.697 10.0118 15.7956C9.55663 16.4572 9.31958 17.2962 9.16471 17.9547C8.92134 18.9741 8.72538 20.0252 8.53574 21.0382C8.45356 21.4815 8.31765 22.0608 8.28289 22.3647C8.24812 22.6687 8.17858 23.2797 8.18174 23.4855C8.21335 24.7328 8.19439 25.7649 8.27024 27.1579C8.28921 27.5378 8.30501 27.9177 8.31765 28.2976C8.35874 29.3803 8.39983 30.4978 8.58315 31.5806C8.71273 32.3372 9.05408 33.059 9.38595 33.7587C9.48709 33.9708 9.58507 34.1797 9.67989 34.3887C9.85057 34.7718 10.0149 35.1548 10.1824 35.5411C10.7039 36.7504 11.2413 37.9978 11.9113 39.1533C12.673 40.4672 13.5643 41.1731 14.4841 42.2179C14.68 42.4395 15.8969 43.8356 16.0897 44.0921C17.474 45.9473 19.3357 47.4036 21.9558 48.6763C22.2498 48.8187 22.588 48.901 22.8851 48.9707C23.2075 49.0498 23.514 49.1226 23.6658 49.2493C23.6658 49.2493 23.6721 49.2524 23.6752 49.2556C24.26 49.4361 24.8384 49.683 25.4136 49.9426C25.4231 49.9426 25.4294 49.9489 25.4389 49.9521C25.9888 50.1294 26.5514 50.256 27.1172 50.3668C27.8252 50.4428 28.4952 50.5283 29.1274 50.7879C29.7626 51.0506 30.4801 51.1076 31.1755 51.1615L31.343 51.1741C31.9877 51.2279 32.5883 51.2691 33.173 51.2691C33.4922 51.2691 33.8083 51.2501 34.1243 51.2216C35.0378 50.962 36.0049 50.6644 36.9689 50.4776C37.1048 50.4301 37.2407 50.389 37.383 50.351C37.4399 50.3352 37.4999 50.3225 37.5568 50.3098C37.6485 50.256 37.7401 50.2054 37.8381 50.1579C37.9392 50.1104 38.0435 50.0661 38.151 50.0281C39.1814 49.6672 40.2244 49.4297 41.2548 49.1353C41.2769 49.129 41.299 49.1226 41.3211 49.1163C41.3559 49.1068 41.3907 49.0973 41.4254 49.0878C42.0576 48.901 42.6834 48.6921 43.2965 48.4103C44.5829 47.8215 45.8503 47.1345 46.9471 46.2354C46.9755 46.2132 47.004 46.1879 47.0324 46.1626C47.0735 46.1277 47.1178 46.0961 47.1588 46.0612C47.1588 46.0612 47.1588 46.0581 47.1588 46.0549C47.3011 45.9346 47.4401 45.8111 47.5729 45.6813C47.7657 45.4946 47.9648 45.3046 48.1639 45.1178C48.5116 44.7886 48.8593 44.4561 49.2069 44.1174C49.2038 44.1237 49.2006 44.1269 49.1943 44.1332C49.2891 44.0414 49.3808 43.9496 49.4724 43.8578C49.5546 43.7755 49.64 43.6963 49.7221 43.6172C49.7221 43.6172 49.7221 43.6109 49.7253 43.6077C49.9592 43.3734 50.1899 43.136 50.4112 42.8954C50.4143 42.8954 50.4175 42.8954 50.4206 42.8954C50.487 42.8257 50.5471 42.7561 50.6103 42.6864C50.6198 42.6769 50.6292 42.6674 50.6387 42.6579C50.8694 42.3983 51.3846 41.9266 51.5427 41.7335C52.061 41.1003 52.5572 40.5368 52.6426 40.4323C52.7279 40.3247 53.4801 39.6187 53.8057 39.1565C54.1312 38.6943 55.4461 36.0065 55.4682 34.9586C55.484 34.2336 55.7432 33.5402 55.996 32.8691C56.3721 31.8718 56.6313 30.1053 56.6345 29.8077C56.6408 29.5101 56.7072 28.8484 56.7008 28.668C56.7008 28.649 56.7008 28.6268 56.7008 28.6078ZM45.6481 26.8888C45.5564 27.6549 45.2024 28.421 44.8611 29.1587C44.7662 29.3645 44.6714 29.5702 44.5829 29.7729C44.1878 30.6783 43.7928 31.5552 43.2744 32.3435C42.6581 33.287 41.9849 33.7967 40.945 34.1038C40.512 34.2304 40.079 34.4299 39.6586 34.6198C39.0707 34.8857 38.4639 35.1612 37.8255 35.272C37.443 35.3385 37.029 35.3986 36.5612 35.4556C36.2989 35.4873 36.0365 35.5094 35.7742 35.5316L35.4455 35.5601L35.2527 35.5442H35.2432C35.1199 35.5506 34.9998 35.5601 34.8766 35.5696C34.6048 35.5886 34.3235 35.6044 34.0516 35.6076C33.7451 35.6076 33.4258 35.5601 33.0971 35.5157C32.2817 35.4018 31.4631 35.2846 30.5813 35.158C30.5813 35.158 30.0439 35.1643 29.7026 35.0694C29.3612 34.9744 28.334 34.566 28.0338 34.4014C27.7335 34.2367 26.7 33.2458 26.2354 32.6665C26.0489 32.4322 24.7467 30.577 24.5318 30.1433C24.3168 29.7095 23.5298 28.1836 23.3718 27.1737C23.3465 27.0122 23.3276 26.8508 23.3149 26.6893C23.1917 26.1353 23.1158 25.5718 23.0779 25.0082C23.0557 24.6315 23.0494 24.2579 23.0652 23.8812C23.0684 23.8052 23.0716 23.7292 23.0747 23.6501C23.0684 23.2037 23.0747 22.7478 23.0968 22.2856C23.1095 22.0355 23.1253 21.7822 23.1442 21.5321C23.3086 19.4806 23.7701 17.369 24.7119 15.6404C24.8194 15.441 24.9363 15.2574 25.0564 15.0801C25.1133 14.9946 25.1734 14.9091 25.2366 14.83C25.2619 14.7952 25.2903 14.7603 25.3156 14.7255C25.3693 14.6559 25.4262 14.5894 25.4831 14.5229C25.5116 14.4881 25.5432 14.4532 25.5716 14.4216C25.736 14.2411 25.9067 14.0733 26.0868 13.9214C26.4376 13.3705 26.8201 12.8197 27.2152 12.2688C27.4775 11.9016 28.2171 11.7812 28.8713 11.6736C29.0547 11.6451 29.2348 11.6135 29.3992 11.5818C30.2589 11.4077 31.1502 11.2874 32.0099 11.1734C32.2848 11.1354 32.5567 11.1006 32.8316 11.0626C32.9138 11.0499 33.1351 11.0721 33.2236 11.0594C33.4543 11.0246 33.666 11.0974 33.9884 11.0784C34.7533 11.0309 35.2084 11.5755 35.9069 11.8731C37.1617 12.4081 38.4576 12.9621 39.7882 13.3389C42.105 13.9974 43.8086 15.5423 45.1518 18.1921C45.5785 19.0342 45.8345 20.1201 45.8725 21.2535C45.9388 23.2385 45.8661 25.1349 45.6544 26.8888H45.6481Z" fill="#3A3A3A"/>
<path d="M123.702 49.6769C123.535 48.9075 123.345 48.1414 123.14 47.3784C123.133 47.3784 123.124 47.3784 123.117 47.3784C122.533 46.4477 122.018 45.4884 121.547 44.5861C121.36 44.2284 121.189 43.8517 121.022 43.4844C120.807 43.0127 119.789 42.1199 119.173 41.0435C118.56 39.9671 115.285 35.3386 114.163 33.9393C113.041 32.54 109.934 28.0572 109.305 27.272C108.676 26.4869 107.675 25.2269 107.068 24.5304C105.977 23.283 105.042 21.8679 104.621 20.247C104.296 18.9933 104.223 17.6921 103.996 16.4258C103.733 16.0585 103.452 15.7071 103.171 15.3684C102.962 15.1183 102.608 15.0201 102.267 14.9251C102.118 14.884 101.976 14.846 101.849 14.7953C101.685 14.7289 101.521 14.6592 101.356 14.5896C100.971 14.4281 100.576 14.2571 100.165 14.1463C99.9783 14.0957 99.7855 14.1242 99.599 14.1527C99.422 14.178 99.2577 14.2033 99.1471 14.1527C97.9334 13.5923 96.9536 13.9659 95.9169 14.3585C95.6482 14.4598 95.3733 14.5642 95.0888 14.656C93.7582 15.0771 93.145 16.0902 92.5508 17.0716C92.279 17.5243 92.0103 17.9612 91.6816 18.3285C91.6058 18.5406 91.5268 18.7495 91.4288 18.9521C90.961 19.9272 90.3194 20.858 89.7252 21.7729C89.4249 22.6087 89.1089 23.4508 88.7327 24.2518C88.4072 24.9483 87.99 25.6226 87.5854 26.2716C87.184 26.9206 86.7668 27.5918 86.435 28.2946C85.8123 29.6116 85.256 30.9824 84.7156 32.3089C84.4121 33.0529 84.1087 33.8 83.7926 34.5377C83.5619 35.0759 83.3154 35.6172 83.072 36.1396C82.7591 36.8203 82.4336 37.5263 82.1459 38.2354C81.8963 38.8528 81.6687 39.4796 81.4506 40.1064C81.4506 40.2426 81.4253 40.3819 81.3653 40.5243C80.7647 41.9521 80.3096 43.4211 79.864 44.8964C79.8387 45.1022 79.7944 45.2795 79.7091 45.4029C79.3677 46.53 79.0201 47.657 78.6092 48.7619C78.1477 49.9998 77.2912 51.4529 76.7918 52.906C76.776 53.1656 76.7981 53.4379 76.8866 53.726C77.0099 54.1312 77.1616 54.5966 77.3639 55.0398C77.898 55.6382 78.4353 56.2365 79.0296 56.7747C79.6933 57.2338 80.3855 57.6548 81.1061 58.0157C81.8488 58.3893 82.6169 58.7027 83.4007 58.9813C83.5904 58.9687 83.7832 58.956 83.9728 58.956C85.0221 58.9528 85.964 59.4372 87.026 59.2979C88.5083 59.1048 89.6588 58.0791 90.4837 56.8792C90.9958 55.7237 91.6753 54.6504 92.1241 53.4664C92.3548 52.8554 92.5634 52.238 92.8353 51.6429C93.0818 51.0983 93.3726 50.5855 93.5211 49.9998C93.7297 49.1735 93.9699 48.3694 94.3492 47.6254C94.3871 47.5051 94.4251 47.3879 94.4662 47.2676C94.5262 47.0998 94.5926 46.9384 94.659 46.7738C94.6621 46.7516 94.6653 46.7294 94.6684 46.7073C94.6748 46.6978 94.6842 46.6883 94.7 46.6788C94.8834 46.2482 95.0856 45.8272 95.2753 45.3998C95.5313 44.8267 95.7494 44.2506 95.9359 43.6554C96.0402 43.323 96.1603 42.9937 96.312 42.6835C96.312 42.6835 96.3088 42.6771 96.3057 42.674C96.312 42.6708 96.3183 42.6676 96.3215 42.6613C96.4131 42.4745 96.5143 42.2941 96.6407 42.1263C96.9915 41.6609 97.3613 41.2873 97.63 40.7618C97.8006 40.4325 97.9523 40.0938 98.1167 39.7614C98.2273 39.4036 98.3537 39.0269 98.5118 38.6185C98.6003 38.3874 98.9574 38.1626 99.2482 38.0803C99.3272 38.0676 99.6338 38.2734 99.7286 38.4507C99.9088 38.7989 100.067 39.1662 100.219 39.5239C100.411 39.9766 101.815 41.9078 102.194 42.4049C102.482 42.7784 102.766 43.1615 102.975 43.5857C103.019 43.6712 103.057 43.7599 103.095 43.8485H103.101C103.101 43.8485 103.104 43.8675 103.107 43.877C103.306 44.3234 103.477 44.7856 103.654 45.2383C103.86 45.7638 104.052 46.2925 104.239 46.8212C105.364 48.9994 107.782 52.0734 107.949 52.3298C108.117 52.5863 108.616 52.9599 108.92 53.3967C109.226 53.8336 109.855 54.4795 110.415 55.176C110.804 55.6572 111.199 56.1384 111.616 56.5974C111.979 56.9963 112.349 57.4269 112.807 57.7182C113.421 58.1076 114.135 58.3165 114.855 58.4336C115.159 58.4336 115.453 58.4716 115.731 58.5381C115.797 58.5444 115.867 58.5508 115.933 58.5571C116.196 58.4811 116.455 58.402 116.717 58.3228C116.872 58.2405 117.027 58.1614 117.191 58.0886C117.33 58.0284 117.466 57.9588 117.605 57.8954C117.855 57.7276 118.095 57.5345 118.339 57.3477C118.841 56.9647 119.404 56.7399 119.96 56.4486C121.091 55.8598 121.831 54.7042 122.599 53.7228C122.982 53.2353 123.418 52.7921 123.8 52.3014C123.825 52.2697 123.848 52.2412 123.87 52.2095C123.958 51.3643 123.879 50.5126 123.693 49.6705L123.702 49.6769Z" fill="#3A3A3A"/>
<path d="M69.7981 95.3411C69.7317 94.138 69.817 92.9002 69.5579 91.7288C69.128 91.4502 68.6855 91.2223 68.0692 91.0228C67.7626 90.9247 67.4592 90.8297 67.1558 90.7379C66.6532 90.7094 66.1538 90.6714 65.6513 90.6049C64.7347 90.4878 63.8624 90.2408 62.9869 89.9971C61.4634 89.8799 59.9337 89.8388 58.4134 89.6203C56.0366 89.2816 53.881 89.481 51.5074 89.5412C51.0207 89.5887 50.5339 89.6298 50.0472 89.6678C50.0377 89.6678 50.0282 89.6742 50.0187 89.6773C49.3076 89.9211 48.4036 89.9243 47.4618 89.8419C46.109 89.9148 44.7531 89.9622 43.3972 90.0034C41.0456 90.3485 38.6878 90.6081 36.3015 90.6239C32.3539 90.6492 28.4094 90.4973 24.4649 90.3643C22.0091 90.282 18.605 91.0386 16.4274 89.6203C16.3673 89.5792 15.8332 89.424 15.7952 89.2278C15.7573 89.0315 15.4412 87.7461 15.3022 87.0117C15.1821 86.3848 15.0588 85.7358 14.8944 85.1058L14.7933 84.7101C14.5278 83.6685 14.2528 82.5921 13.6713 81.7278C13.5543 81.5537 13.4405 81.3638 13.3268 81.1706C13.2983 81.1232 13.2699 81.0757 13.2414 81.0282C12.682 80.5945 12.0815 80.2399 11.3924 80.0278C9.61616 79.689 8.10853 79.7998 6.49344 80.2114C5.97193 80.6546 5.54841 81.2245 5.324 82.0286C4.9542 83.3519 4.54648 84.6911 4.1514 85.9828C3.43393 88.3445 2.69434 90.7854 2.13491 93.2263C1.83464 94.5369 2.29926 96.0755 2.71014 97.4305L2.74491 97.5445C2.93455 98.1713 3.25061 98.757 3.61093 99.3237C4.06922 99.7923 4.54648 100.245 4.98581 100.755C5.00477 100.777 5.02058 100.802 5.03954 100.824C8.2318 102.119 11.9298 102.151 15.3085 102.496C15.8648 102.553 16.421 102.597 16.9741 102.635C17.7675 102.683 18.5513 102.711 19.3383 102.727C19.6891 102.689 20.0337 102.683 20.3687 102.743C20.9281 102.743 21.7309 102.727 22.0533 102.727C22.3757 102.727 23.2765 102.756 23.7695 102.708C24.2626 102.661 28.7286 102.888 31.2129 103.056H37.2971L37.7396 103.066C38.5677 103.015 38.9565 103.015 39.7814 102.939C39.9489 102.873 40.2808 102.911 40.4483 102.854C40.9287 102.692 41.4439 102.825 41.6904 102.784C41.9369 102.743 43.3055 102.667 44.1462 102.651C44.5793 102.645 45.0123 102.616 45.4453 102.581C45.9857 102.461 46.5389 102.385 47.1015 102.338C47.2468 102.309 47.3922 102.281 47.5345 102.255L47.5218 102.227L47.5755 102.249C48.3246 102.113 49.08 101.999 49.8417 101.955C50.1894 101.936 50.5339 101.929 50.8816 101.932C50.8879 101.932 50.8911 101.929 50.8974 101.929C50.9258 101.926 50.9574 101.929 50.9922 101.936C51.0649 101.936 51.1376 101.936 51.2103 101.936C51.5264 101.913 51.8424 101.894 52.1616 101.885C54.4879 101.822 56.7794 101.714 59.0613 101.53C59.172 101.511 59.2857 101.495 59.3964 101.48C61.9344 101.065 64.4534 100.52 66.9314 99.8397C67.7089 99.6276 68.616 99.4313 69.2291 98.8773C69.7886 97.7534 69.8676 96.6137 69.7981 95.3347V95.3411Z" fill="#3A3A3A"/>
<path d="M145.883 40.4006C145.883 40.4006 145.911 40.3975 145.924 40.3943C145.952 40.4576 145.984 40.5273 146.016 40.5938C146.129 40.8344 146.262 41.1066 146.243 41.3441C146.237 41.4549 146.224 41.5688 146.208 41.6828C146.373 42.2368 146.37 42.8573 146.335 43.4177C146.278 44.3105 146.085 45.2982 146.003 46.0992C145.88 47.3086 145.921 48.5464 145.924 49.7589C145.927 50.7815 145.924 51.8041 145.937 52.8267C145.956 54.2513 146 55.8754 146.629 57.1481C146.91 57.7179 147.299 58.177 147.852 58.3353C148.345 58.4777 148.882 58.4967 149.391 58.5379C150.042 58.5885 150.697 58.6139 151.351 58.6075C152.312 58.6012 153.266 58.5252 154.211 58.3859C157.226 57.509 157.843 55.0396 157.874 52.3454C157.84 52.1017 157.805 51.8547 157.764 51.6141C157.729 51.4178 157.764 51.1931 157.795 50.9746L157.805 50.9113C157.814 50.8512 157.827 50.791 157.84 50.7309C157.789 49.6671 157.707 48.6129 157.697 47.6473C157.697 47.5302 157.716 47.4289 157.745 47.3339C157.745 47.3181 157.742 47.2991 157.738 47.2832C157.628 46.4126 157.514 45.5135 157.435 44.6271C157.391 44.1142 157.407 43.5792 157.426 43.0631C157.438 42.6737 157.451 42.2717 157.438 41.8759C157.416 41.2649 157.356 40.6444 157.299 40.0461C157.277 39.8213 157.255 39.5965 157.236 39.3717L157.226 39.2768C157.211 39.0741 157.192 38.8652 157.138 38.6594C157.062 38.3776 156.974 38.0927 156.885 37.8173C156.721 37.3013 156.55 36.7662 156.49 36.2375C156.376 35.2434 156.307 34.2209 156.24 33.2331C156.111 31.3399 155.978 29.3834 155.532 27.5282C155.317 26.6323 155.163 25.711 155.014 24.8214C154.821 23.6722 154.625 22.485 154.293 21.3485C154.151 20.8609 154.034 20.3512 153.924 19.8573C153.554 18.2333 153.168 16.5553 151.812 15.2573C151.386 15.0484 150.94 14.8553 150.482 14.7603C149.881 14.6368 149.24 14.7381 148.633 14.7476C148.557 14.7476 148.478 14.7476 148.396 14.7413C148.272 14.792 148.149 14.8394 148.029 14.8933C147.877 14.9597 147.726 15.0294 147.577 15.1022C147.147 15.4789 146.831 15.9918 146.806 16.7738C146.784 17.5019 146.705 18.2427 146.632 18.9582C146.55 19.7529 146.464 20.5728 146.452 21.3833C146.42 23.2796 146.442 25.2077 146.464 27.0723C146.474 27.943 146.487 28.8104 146.49 29.681C146.496 30.5928 146.259 31.2735 145.82 31.5995C145.744 31.6565 145.659 31.7008 145.57 31.7357C145.172 32.0238 144.625 32.1631 144.189 32.3308C143.987 32.4068 143.781 32.5018 143.563 32.5651C143.354 32.6253 143.095 32.6823 142.925 32.7519C142.776 32.8121 142.624 32.9007 142.46 32.8912C142.229 32.8817 142.096 32.6949 142.1 32.4733C142.1 32.4638 142.103 32.4575 142.106 32.448C142.065 32.2739 142.074 32.0966 142.115 31.9225C142.109 31.8085 142.106 31.7008 142.106 31.5964C142.115 31.3051 142.144 31.0075 142.169 30.7194C142.213 30.2477 142.261 29.7602 142.223 29.2821C142.169 28.5856 142.068 27.8796 141.973 27.199C141.806 26.0118 141.632 24.7866 141.701 23.6026C141.844 21.2598 141.388 19.0057 140.949 16.8244L140.835 16.2578C140.744 15.7955 140.159 15.422 139.982 15.3175C139.802 15.213 139.615 15.1117 139.429 15.0136C139.135 14.9218 138.844 14.8204 138.547 14.7445C138.455 14.7223 138.364 14.7065 138.272 14.6938C138.266 14.6938 138.263 14.6938 138.256 14.6938C137.972 14.659 137.678 14.6653 137.393 14.6717C136.584 14.6875 135.778 14.7666 134.982 14.8996C134.925 14.9249 134.865 14.9502 134.808 14.9756C134.685 15.0326 134.561 15.099 134.441 15.1655C134.416 15.1972 134.391 15.2257 134.366 15.2542C134.302 15.327 134.233 15.3998 134.163 15.4695C134.16 15.4726 134.154 15.4758 134.151 15.4789C134.034 15.7069 133.895 15.9348 133.759 16.1564C133.506 16.5617 133.24 16.9796 133.123 17.4418C132.975 18.0338 132.959 18.6606 132.946 19.2685C132.94 19.5597 132.934 19.8637 132.912 20.1549C132.864 20.7976 132.807 21.4403 132.754 22.0829C132.649 23.305 132.542 24.5681 132.482 25.8155C132.438 26.7178 132.453 27.6359 132.466 28.5223C132.475 29.0225 132.482 29.5196 132.479 30.0166V30.6466C132.479 31.5362 132.479 32.4575 132.422 33.3566C132.381 34.0024 132.311 34.6609 132.248 35.3004C132.163 36.1236 132.074 36.972 132.042 37.8141C132.005 38.8557 132.121 39.9131 132.238 40.9642C132.387 42.2812 132.577 43.6805 132.839 45.371C132.886 45.6845 132.969 45.9916 133.051 46.2891C133.142 46.6311 133.237 46.9825 133.275 47.3307C133.348 47.9924 133.398 48.6667 133.446 49.322C133.503 50.123 133.563 50.9493 133.667 51.7598C133.746 52.3549 133.882 52.9565 134.015 53.539C134.097 53.8936 134.176 54.2545 134.245 54.6122C134.631 55.7867 134.919 56.9803 135.898 57.873C136.044 58.006 136.196 58.1295 136.354 58.2466C137.596 58.4524 139.132 58.6518 140.213 58.4587C140.529 58.3384 140.845 58.2118 141.161 58.0788C141.392 57.892 141.531 57.6356 141.543 57.2937C141.55 57.1354 141.584 56.9961 141.641 56.8758C141.654 56.7175 141.67 56.5624 141.679 56.4041L141.67 56.3978C141.67 56.3978 141.679 56.3851 141.682 56.3788C141.765 55.1852 141.79 53.9854 141.863 52.795C141.935 51.535 142.1 50.294 142.273 49.0434C142.447 47.7961 142.356 46.6279 142.292 45.428C142.283 45.3964 142.273 45.3647 142.264 45.3299C142.191 45.064 142.163 44.7474 142.182 44.3643C142.191 44.1933 142.204 44.0224 142.217 43.8514C142.204 43.7153 142.191 43.5792 142.182 43.443C142.109 42.5091 142.027 41.5752 141.957 40.6412C141.942 40.4133 141.942 40.1632 142.027 39.9479C142.014 39.8973 142.005 39.8498 141.992 39.796C142.115 39.7105 142.251 39.6187 142.337 39.5585C142.343 39.5617 142.349 39.568 142.359 39.5712C142.596 39.4445 142.874 39.4699 143.146 39.5174C143.93 39.6567 145.336 39.6693 145.889 40.4006H145.883Z" fill="#3A3A3A"/>
<path d="M66.8445 65.6227L66.8287 65.61C65.9974 65.0402 65.0524 64.3943 64.0947 63.8086C63.7565 63.6028 63.3203 63.4889 62.7577 63.4604C61.7021 63.4066 60.6464 63.3622 59.5876 63.3211C58.8828 63.2926 58.178 63.2641 57.4763 63.2324C57.1697 63.2198 56.8631 63.1913 56.5439 63.1628C55.9434 63.109 55.3239 63.0552 54.6886 63.0931C53.633 63.1501 52.5678 63.2419 51.528 63.3306C50.4691 63.4224 49.3756 63.5142 48.3041 63.5712C46.4393 63.6693 44.5398 63.7042 42.7003 63.7358L41.8437 63.7516L41.7394 63.758C41.376 63.7865 41.0346 63.815 40.6901 63.8213C40.6901 63.8213 40.4404 63.8625 40.3646 63.8181C40.2887 63.7738 40.3962 63.4889 40.3993 63.4256C40.4246 62.9982 40.3993 62.5739 40.3677 62.1434C40.3298 61.6147 40.2192 61.2823 40.0864 60.551C39.9537 59.8196 38.7779 58.1766 38.1837 56.9482C38.1047 56.7867 38.032 56.6221 37.9561 56.4512C37.8803 56.2802 37.836 56.1346 37.7096 55.9161C37.5832 55.6977 37.3461 55.6439 37.1502 55.5299C36.36 55.0708 35.7405 54.9474 34.8777 54.8366C34.3593 54.7701 33.6545 54.7891 33.1994 54.7669C32.3776 54.7289 31.2903 54.7986 30.9679 54.9062C30.6456 55.0139 30.1367 55.2323 29.9502 55.3431C29.7637 55.4539 29.533 55.59 29.2644 55.761C29.0558 55.894 28.765 56.0871 28.5627 56.2485C28.3604 56.41 27.9653 56.9007 27.9116 57.3028C27.8579 57.7048 27.6303 58.8256 27.7346 60.0191C27.8136 60.2724 27.8484 61.2474 27.8673 61.6463C27.8926 62.194 27.9843 62.8525 28.0538 63.1691C28.1234 63.4857 27.7852 64.0017 27.7788 64.2265C27.7378 64.2297 27.7062 64.2329 27.6935 64.2329C27.6872 64.2329 27.6177 64.2329 27.5039 64.2582C27.0171 64.35 26.6947 64.4007 26.543 64.4101L26.4293 64.4165C25.873 64.4513 25.2472 64.4956 24.8963 64.5716C24.3306 64.6951 23.8438 64.7172 23.1706 64.7394C22.1908 64.7711 20.2439 64.7521 19.2483 64.7331C17.8797 64.7077 16.4637 64.6792 15.0604 64.7901C10.8883 65.1161 6.74157 65.5784 2.73703 66.1672C1.60868 66.3318 0.692094 67.6235 0.243282 68.3801C-0.173924 69.0893 -0.0380161 70.4063 0.524579 71.0933C1.56759 72.366 2.38936 73.3695 3.54932 73.4297C3.65678 73.436 3.77373 73.4392 3.89383 73.4392C4.32052 73.4392 4.8199 73.4107 5.26871 73.3822C5.71752 73.3537 6.1853 73.3252 6.39706 73.3442C7.09557 73.398 7.99635 73.3062 8.86553 73.2208C9.18792 73.1891 9.50398 73.1574 9.7916 73.1353C10.6007 73.072 11.3056 73.0245 11.9314 72.9801C12.6678 72.9295 13.3031 72.8852 13.8878 72.8345C14.1375 72.8124 14.7064 72.8472 15.1647 72.8725C15.4808 72.8915 15.7715 72.9073 15.9549 72.9073C16.8904 72.9105 17.8923 72.8852 18.8595 72.863C20.0542 72.8314 21.2869 72.7997 22.4152 72.825C23.1106 72.8408 23.8028 72.8567 24.4981 72.8725C24.6877 72.8757 24.8805 72.8915 25.086 72.9073C25.4368 72.9327 25.7529 72.958 26.0942 72.9422C26.4988 72.9263 26.9128 72.882 27.2795 72.8408C27.9337 72.768 28.6133 72.692 29.2043 72.787C29.4224 72.8218 29.6405 72.863 29.8712 72.9073C30.595 73.0466 31.3883 73.1891 31.7739 73.1764C32.1595 73.1638 33.4522 73.3316 33.8252 73.3062C34.3941 73.2682 34.9567 73.1828 35.5098 73.1004C36.3885 72.9675 37.2956 72.8313 38.1142 72.9168C38.5503 72.9611 39.0086 73.0276 39.4132 73.0846C40.2729 73.2081 41.161 73.3347 42.0903 73.3347C42.5517 73.3347 42.9847 73.3031 43.4051 73.2397C44.8432 73.0181 46.354 72.9548 47.8142 72.8947L48.5664 72.863C49.4451 72.825 50.3364 72.8345 51.0128 72.8472H51.0507H51.0886C52.3371 72.7237 53.4907 72.6414 54.6191 72.5939H54.676C54.7803 72.5749 54.8814 72.5623 54.9857 72.5559C56.6356 72.4293 58.3234 72.3533 59.9606 72.2805L60.5643 72.252C60.8139 72.2393 61.0668 72.233 61.3196 72.2267C63.2603 72.176 65.675 72.1159 67.0057 69.4375C67.3628 68.7189 68.0992 66.4775 66.8476 65.6195L66.8445 65.6227Z" fill="#3A3A3A"/>
</g>
</svg>
