<svg width="261" height="103" viewBox="0 0 261 103" fill="none" xmlns="http://www.w3.org/2000/svg">
<path d="M52.7616 25.3503C52.7616 30.1357 48.8735 34.0038 44.1081 34.0038C39.3427 34.0038 35.4546 30.1357 35.4546 25.3503C35.4546 20.565 39.3227 16.6968 44.1081 16.6968C48.8934 16.6968 52.7616 20.565 52.7616 25.3503Z" fill="#CF121C"/>
<path d="M126.077 42.3383C126.077 47.1236 122.209 50.9918 117.424 50.9918C112.638 50.9918 108.77 47.1236 108.77 42.3383C108.77 37.553 112.638 33.6848 117.424 33.6848C122.209 33.6848 126.077 37.553 126.077 42.3383Z" fill="#0075BD"/>
<path d="M68.912 25.6893C68.912 39.3873 57.8459 50.4933 44.1877 50.4933C30.5295 50.4933 19.4634 39.3873 19.4634 25.6893C19.4634 11.9912 30.5295 0.885239 44.1877 0.885239C57.8459 0.885239 68.912 11.9912 68.912 25.6893ZM44.0282 11.5725C36.4115 11.5725 30.2504 17.7735 30.2504 25.3902C30.2504 33.0069 36.4314 39.2079 44.0282 39.2079C51.6249 39.2079 57.806 33.0268 57.806 25.3902C57.806 17.7536 51.6448 11.5725 44.0282 11.5725Z" fill="#1F1F1F"/>
<path d="M141.709 42.3383C141.709 56.0364 130.643 67.1423 116.985 67.1423C103.327 67.1423 92.2607 56.0364 92.2607 42.3383C92.2607 28.6402 103.327 17.5343 116.985 17.5343C130.643 17.5343 141.709 28.6402 141.709 42.3383ZM116.826 29.2185C109.209 29.2185 103.048 35.4195 103.048 43.0362C103.048 50.6528 109.209 56.8539 116.826 56.8539C124.442 56.8539 130.603 50.6728 130.603 43.0362C130.603 35.3996 124.442 29.2185 116.826 29.2185Z" fill="#1F1F1F"/>
<path d="M86.897 61.4199C86.897 65.1285 83.6669 68.1393 79.6791 68.1393H7.85901C3.87122 68.1393 0.641113 65.1285 0.641113 61.4199C0.641113 57.7112 3.87122 54.7004 7.85901 54.7004H79.6791C83.6669 54.7004 86.897 57.7112 86.897 61.4199Z" fill="#1F1F1F"/>
<path d="M50.7477 44.9503H37.1294V59.9245H50.7477V44.9503Z" fill="#1F1F1F"/>
<path d="M25.7842 92.3252C25.7842 96.1535 22.6738 99.264 18.8455 99.264C15.0172 99.264 11.9067 96.1535 11.9067 92.3252V78.6272C11.9067 74.7989 15.0172 71.6884 18.8455 71.6884C22.6738 71.6884 25.7842 74.7989 25.7842 78.6272V92.3252Z" fill="#1F1F1F"/>
<path d="M78.1638 93.1228C78.1638 96.7916 75.1929 99.7625 71.5241 99.7625H18.8853C15.2165 99.7625 12.2456 96.7916 12.2456 93.1228C12.2456 89.454 15.2165 86.4831 18.8853 86.4831H71.5241C75.1929 86.4831 78.1638 89.454 78.1638 93.1228Z" fill="#1F1F1F"/>
<path d="M113.555 92.3252C113.555 96.1535 110.445 99.264 106.616 99.264C102.788 99.264 99.6777 96.1535 99.6777 92.3252V78.6272C99.6777 74.7989 102.788 71.6884 106.616 71.6884C110.445 71.6884 113.555 74.7989 113.555 78.6272V92.3252Z" fill="#1F1F1F"/>
<path d="M165.915 93.1228C165.915 96.7916 162.944 99.7625 159.276 99.7625H106.637C102.968 99.7625 99.9971 96.7916 99.9971 93.1228C99.9971 89.454 102.968 86.4831 106.637 86.4831H159.276C162.944 86.4831 165.915 89.454 165.915 93.1228Z" fill="#1F1F1F"/>
<path d="M124.562 16.5373C124.562 20.1662 121.631 23.0972 118.002 23.0972C114.373 23.0972 111.442 20.1662 111.442 16.5373V10.4759C111.442 6.84698 114.373 3.91595 118.002 3.91595C121.631 3.91595 124.562 6.84698 124.562 10.4759V16.5373Z" fill="#1F1F1F"/>
<path d="M145.079 20.8242C145.079 24.5926 142.028 27.6433 138.28 27.6433H98.0829C94.3144 27.6433 91.2837 24.5926 91.2837 20.8242C91.2837 17.0557 94.3344 14.0051 98.0829 14.0051H138.28C142.048 14.0051 145.079 17.0557 145.079 20.8242Z" fill="#1F1F1F"/>
<path d="M154.151 38.3904C154.151 32.1296 158.438 26.8856 164.24 25.3902V11.1538C164.24 7.24576 161.07 4.09541 157.182 4.09541C153.294 4.09541 150.124 7.24576 150.124 11.1538V62.7757C150.124 66.6838 153.294 69.8341 157.182 69.8341C161.07 69.8341 164.24 66.6638 164.24 62.7757V51.4105C158.438 49.9151 154.151 44.6712 154.151 38.4103" fill="#1F1F1F"/>
<path d="M176.184 37.7125C176.184 42.0791 172.635 45.6083 168.288 45.6083C163.941 45.6083 160.392 42.0791 160.392 37.7125C160.392 33.3458 163.941 29.8166 168.288 29.8166C172.635 29.8166 176.184 33.3458 176.184 37.7125Z" fill="#1F1F1F"/>
<path d="M251.673 13.0081C251.673 16.8165 248.582 19.907 244.774 19.907H199.532C195.724 19.907 192.633 16.8165 192.633 13.0081C192.633 9.19977 195.724 6.10924 199.532 6.10924H244.774C248.582 6.10924 251.673 9.19977 251.673 13.0081Z" fill="#1F1F1F"/>
<path d="M260.087 37.8919C260.087 41.8 256.916 44.9503 253.028 44.9503H188.466C184.558 44.9503 181.408 41.78 181.408 37.8919C181.408 34.0038 184.578 30.8335 188.466 30.8335H253.028C256.936 30.8335 260.087 34.0038 260.087 37.8919Z" fill="#1F1F1F"/>
<path d="M236.878 18.0527C236.878 18.0527 233.847 30.4946 227.806 35.5391L239.749 39.5668C239.749 39.5668 252.351 29.9762 251.693 13.0081L235.542 8.46204L236.878 18.0527Z" fill="#1F1F1F"/>
<path d="M259.708 94.0799C259.708 98.6658 255.979 102.394 251.393 102.394C246.807 102.394 243.079 98.6658 243.079 94.0799C243.079 89.4939 246.807 85.7653 251.393 85.7653C255.979 85.7653 259.708 89.4939 259.708 94.0799Z" fill="#FABE07"/>
<path d="M237.177 93.8406C237.177 91.6274 237.695 89.5338 238.573 87.6595H202.922V81.0996H244.794C246.588 80.1226 248.642 79.5444 250.795 79.4247C252.171 78.2085 253.028 76.4339 253.028 74.4599C253.028 74.121 252.988 73.782 252.949 73.463V57.6514H252.829C252.849 57.4321 252.869 57.2128 252.869 56.9735C252.869 53.4044 249.978 50.4933 246.389 50.4933H196.781C193.212 50.4933 190.3 53.3845 190.3 56.9735C190.3 60.5625 193.192 63.4536 196.781 63.4536H239.071V67.8203H196.781C194.747 67.8203 192.912 68.7375 191.696 70.193C190.121 71.4492 189.124 73.3832 189.124 75.5566V93.721C189.124 95.336 189.682 96.8115 190.619 97.9879C191.816 99.9618 193.969 101.278 196.442 101.278H239.251C237.935 99.1045 237.177 96.5722 237.177 93.8406Z" fill="#1F1F1F"/>
</svg>
