<svg width="295" height="160" viewBox="0 0 295 160" fill="none" xmlns="http://www.w3.org/2000/svg">
<mask id="mask0_32_2870" style="mask-type:luminance" maskUnits="userSpaceOnUse" x="0" y="0" width="295" height="160">
<path d="M294.353 0H0V160H294.353V0Z" fill="white"/>
</mask>
<g mask="url(#mask0_32_2870)">
<path d="M91.6679 44.419C91.6679 59.0659 79.7909 70.9628 65.1241 70.9628C50.4573 70.9628 38.5803 59.0858 38.5803 44.419C38.5803 29.7521 50.4573 17.8951 65.1241 17.8951C79.7909 17.8951 91.6679 29.7721 91.6679 44.419Z" fill="#050000"/>
<path d="M79.2527 44.3393C79.2527 52.41 72.7164 58.9463 64.6456 58.9463C56.5749 58.9463 50.0386 52.41 50.0386 44.3393C50.0386 36.2685 56.5749 29.7322 64.6456 29.7322C72.7164 29.7322 79.2527 36.2685 79.2527 44.3393Z" fill="#E60B11"/>
<path d="M53.825 139.235C53.825 143.061 50.7163 146.17 46.8902 146.17C43.0641 146.17 39.9553 143.061 39.9553 139.235V102.827C39.9553 99.0011 43.0641 95.8924 46.8902 95.8924C50.7163 95.8924 53.825 99.0011 53.825 102.827V139.235Z" fill="#050000"/>
<path d="M90.0735 139.036C90.0735 142.982 86.8651 146.19 82.9194 146.19H47.2288C43.2831 146.19 40.0747 142.982 40.0747 139.036C40.0747 135.09 43.2831 131.882 47.2288 131.882H82.9194C86.8651 131.882 90.0735 135.09 90.0735 139.036Z" fill="#050000"/>
<path d="M58.5876 68.4519V79.4321L70.5842 83.7564L71.5805 77.8378L71.4411 66.7182L58.7271 62.9518L58.5876 68.4519Z" fill="#050000"/>
<path d="M107.271 96.6297C107.271 96.6297 107.152 96.6297 107.092 96.6297C73.7329 95.7529 23.7341 78.336 21.6218 77.5987C18.0149 76.3233 16.1018 72.3776 17.3772 68.7707C18.6526 65.1638 22.5983 63.2507 26.2052 64.5261C26.7034 64.7054 76.2836 81.943 107.451 82.7799C111.277 82.8796 114.306 86.068 114.206 89.8941C114.107 93.6605 111.018 96.6496 107.271 96.6496" fill="#050000"/>
<path fill-rule="evenodd" clip-rule="evenodd" d="M26.1081 64.7983C22.6537 63.5772 18.8723 65.4089 17.6495 68.867C16.428 72.3215 18.2595 76.1032 21.7177 77.3261C22.7759 77.6955 35.7942 82.2305 52.7143 86.7829C69.6427 91.3374 90.4528 95.9027 107.096 96.3408H107.56V96.3545C111.019 96.2057 113.824 93.3985 113.917 89.8865C114.013 86.2201 111.11 83.1643 107.443 83.0688C91.8227 82.6493 71.6073 78.1224 55.2514 73.6853C38.9075 69.2514 26.3899 64.8994 26.1081 64.7983ZM106.982 96.9158C90.2839 96.4606 69.4674 91.8887 52.5642 87.3409C35.621 82.7824 22.5859 78.2413 21.5265 77.8715C17.771 76.5436 15.7754 72.4336 17.1047 68.6744C18.4326 64.9189 22.5422 62.9244 26.3014 64.2537C26.5441 64.341 39.0579 68.6934 55.4027 73.1275C71.7532 77.5632 91.9117 82.0736 107.458 82.4911C111.444 82.595 114.599 85.9159 114.495 89.9017C114.391 93.825 111.174 96.9386 107.271 96.9386H106.982V96.9158Z" fill="#050000"/>
<path d="M196.368 44.419C196.368 59.0659 208.245 70.9628 222.912 70.9628C237.579 70.9628 249.456 59.0858 249.456 44.419C249.456 29.7521 237.579 17.8951 222.912 17.8951C208.245 17.8951 196.368 29.7721 196.368 44.419Z" fill="#050000"/>
<path d="M208.783 44.3393C208.783 52.41 215.32 58.9463 223.39 58.9463C231.461 58.9463 237.997 52.41 237.997 44.3393C237.997 36.2685 231.461 29.7322 223.39 29.7322C215.32 29.7322 208.783 36.2685 208.783 44.3393Z" fill="#00A13C"/>
<path d="M180.765 96.6297C180.765 96.6297 180.884 96.6297 180.944 96.6297C214.303 95.7529 264.302 78.336 266.414 77.5987C270.021 76.3233 271.934 72.3776 270.659 68.7707C269.384 65.1638 265.438 63.2507 261.831 64.5261C261.333 64.7054 211.753 81.943 180.586 82.7799C176.759 82.8796 173.73 86.068 173.83 89.8941C173.93 93.6605 177.018 96.6496 180.765 96.6496" fill="#050000"/>
<path d="M229.349 84.7727H215.619V103.844H229.349V84.7727Z" fill="#050000"/>
<path d="M241.763 96.1913H203.064C200.345 96.1913 198.142 98.395 198.142 101.113V140.252C198.142 142.97 200.345 145.174 203.064 145.174H241.763C244.482 145.174 246.686 142.97 246.686 140.252V101.113C246.686 98.395 244.482 96.1913 241.763 96.1913Z" fill="#050000"/>
<path d="M233.673 108.766H209.839V133.038H233.673V108.766Z" fill="#00489D"/>
<path fill-rule="evenodd" clip-rule="evenodd" d="M105.677 85.789C101.574 97.2105 101.579 97.2121 101.583 97.2137L101.592 97.217L101.613 97.2243L101.66 97.2411L101.782 97.2837C101.876 97.3159 101.993 97.3558 102.134 97.4025C102.415 97.496 102.791 97.617 103.259 97.7594C104.196 98.0443 105.502 98.4155 107.162 98.8248C110.48 99.6433 115.213 100.616 121.224 101.356C133.251 102.838 150.379 103.39 171.485 99.938C178.099 98.856 182.584 92.6167 181.502 86.0021C180.42 79.3874 174.181 74.9023 167.566 75.9843C148.956 79.0285 134.159 78.4945 124.192 77.2663C119.205 76.6518 115.422 75.863 112.975 75.2592C111.751 74.9573 110.862 74.702 110.324 74.5382C110.054 74.4563 109.873 74.3974 109.782 74.367C109.751 74.3568 109.731 74.3499 109.72 74.3464C103.428 72.1223 96.5142 75.3982 94.2554 81.6863C91.9896 87.9943 95.2663 94.9447 101.574 97.2105L105.677 85.789ZM109.771 74.3646C109.771 74.3646 109.771 74.3646 109.771 74.3646L109.771 74.3643C109.771 74.3644 109.771 74.3645 109.771 74.3646Z" fill="#050000"/>
<path fill-rule="evenodd" clip-rule="evenodd" d="M123.014 58.1891C129.717 58.1891 135.15 63.6225 135.15 70.3251V89.2565C135.15 91.6037 134.469 93.9005 133.191 95.8688L122.21 112.767C118.559 118.388 111.042 119.984 105.422 116.332C99.8013 112.68 98.2056 105.163 101.857 99.5429L110.878 85.66V70.3251C110.878 63.6225 116.312 58.1891 123.014 58.1891Z" fill="#050000"/>
<path fill-rule="evenodd" clip-rule="evenodd" d="M116.606 81.505C122.087 77.6467 129.657 78.9619 133.516 84.4425L144.795 100.464C148.653 105.945 147.338 113.516 141.857 117.374C136.377 121.232 128.806 119.917 124.948 114.437L113.668 98.4146C109.81 92.9339 111.125 85.3632 116.606 81.505Z" fill="#050000"/>
<path fill-rule="evenodd" clip-rule="evenodd" d="M152.208 57.3322C158.911 57.3322 164.344 62.7656 164.344 69.4682V108.467C164.344 115.169 158.911 120.603 152.208 120.603C145.506 120.603 140.072 115.169 140.072 108.467V69.4682C140.072 62.7656 145.506 57.3322 152.208 57.3322Z" fill="#050000"/>
<path fill-rule="evenodd" clip-rule="evenodd" d="M170.403 57.3322C177.105 57.3322 182.539 62.7656 182.539 69.4682V108.467C182.539 115.169 177.105 120.603 170.403 120.603C163.7 120.603 158.267 115.169 158.267 108.467V69.4682C158.267 62.7656 163.7 57.3322 170.403 57.3322Z" fill="#050000"/>
<path d="M141.487 96.4105C118.67 96.4105 105.338 91.7474 104.581 91.4684C101.572 90.3923 100.017 87.0843 101.093 84.0752C102.17 81.0661 105.478 79.5118 108.467 80.5879C108.746 80.6875 131.942 88.6387 169.446 82.5009C172.594 81.9828 175.563 84.1151 176.082 87.2637C176.6 90.4123 174.467 93.3815 171.319 93.8996C160.119 95.733 150.116 96.4105 141.467 96.4105" fill="#FDD000"/>
<path d="M112.911 112.173C111.835 112.173 110.738 111.874 109.762 111.237C107.092 109.503 106.334 105.916 108.068 103.246L118.112 87.7818V70.5642C118.112 67.3758 120.702 64.7851 123.891 64.7851C127.079 64.7851 129.67 67.3758 129.67 70.5642V89.4956C129.67 90.6115 129.351 91.7076 128.733 92.6442L117.753 109.543C116.637 111.257 114.784 112.173 112.911 112.173Z" fill="#FDD000"/>
<path d="M135.728 113.489C133.915 113.489 132.121 112.632 130.985 111.037L119.706 94.9956C117.873 92.3851 118.511 88.7782 121.121 86.9448C123.732 85.1115 127.339 85.7492 129.172 88.3597L140.431 104.402C142.265 107.012 141.627 110.619 139.016 112.452C138 113.17 136.844 113.509 135.708 113.509" fill="#FDD000"/>
<path d="M153.065 114.485C149.877 114.485 147.286 111.894 147.286 108.706V69.7073C147.286 66.5189 149.877 63.9283 153.065 63.9283C156.254 63.9283 158.844 66.5189 158.844 69.7073V108.706C158.844 111.894 156.254 114.485 153.065 114.485Z" fill="#FDD000"/>
<path d="M170.602 114.485C167.413 114.485 164.823 111.894 164.823 108.706V69.7073C164.823 66.5189 167.413 63.9283 170.602 63.9283C173.79 63.9283 176.381 66.5189 176.381 69.7073V108.706C176.381 111.894 173.79 114.485 170.602 114.485Z" fill="#FDD000"/>
</g>
</svg>
