<svg width="241" height="227" viewBox="0 0 241 227" fill="none" xmlns="http://www.w3.org/2000/svg">
<g style="mix-blend-mode:soft-light">
<path d="M218.777 91.5616C218.777 91.5616 213.337 91.0178 211.753 91.0858C203.558 91.4257 205.693 91.0858 196.741 91.0858C177.803 91.0858 159.073 90.4061 140.549 88.9786V27.1218C140.549 12.1674 128.222 0 113.072 0C97.9227 0 85.5963 12.1674 85.5963 27.1218V82.7929C68.3806 80.2099 51.3027 77.0151 34.5002 73.2085C32.9164 72.8686 27.4762 72.3249 27.4762 72.3249C12.3264 72.3249 0 84.4923 0 99.4467C0 112.294 9.08987 123.034 21.2097 125.889C22.5181 126.161 27.4762 127.248 27.4762 127.248C40.0781 129.967 52.8177 132.414 65.6261 134.521L35.602 185.842C33.1229 189.921 31.6768 194.747 31.6768 199.845C31.6768 214.799 44.0032 226.967 59.153 226.967C69.4824 226.967 78.5034 221.325 83.1861 212.964L113.072 161.847L142.89 212.896C145.231 217.11 148.743 220.781 153.288 223.364C166.441 230.841 183.244 226.423 190.818 213.44C195.983 204.535 195.57 193.999 190.543 185.842L166.51 144.718C176.564 145.126 186.618 145.261 196.741 145.261C205.968 145.261 203.351 145.601 212.51 145.261C213.337 145.193 214.094 145.193 214.438 145.126C226.902 144.718 237.92 135.881 240.468 123.238C243.429 108.555 233.72 94.2806 218.846 91.3577L218.777 91.5616Z" fill="white" fill-opacity="0.6"/>
</g>
</svg>
